<svg xmlns="http://www.w3.org/2000/svg" width="20.444" height="20.444" viewBox="0 0 20.444 20.444">
  <path id="Icon_awesome-info-circle" data-name="Icon awesome-info-circle" d="M10.784.563A10.222,10.222,0,1,0,21.006,10.784,10.223,10.223,0,0,0,10.784.563Zm0,4.534A1.731,1.731,0,1,1,9.053,6.828,1.731,1.731,0,0,1,10.784,5.1Zm2.308,10.469a.5.5,0,0,1-.495.495H8.971a.5.5,0,0,1-.495-.495v-.989a.5.5,0,0,1,.495-.495h.495V11.444H8.971a.5.5,0,0,1-.495-.495V9.96a.5.5,0,0,1,.495-.495h2.638a.5.5,0,0,1,.495.495v4.122H12.6a.5.5,0,0,1,.495.495Z" transform="translate(-0.563 -0.563)" fill="#fff"/>
</svg>
