<svg xmlns="http://www.w3.org/2000/svg" width="1920" height="221.321" viewBox="0 0 1920 221.321">
  <g id="Intersection_44" data-name="Intersection 44" transform="translate(-24.867 -253)">
    <path d="M 25.3670597076416 473.7734985351563 L 25.3670597076416 253.4998016357422 L 1944.366821289063 253.4998016357422 L 1944.366821289063 464.8350524902344 C 1892.218383789063 461.7420043945313 1752.471923828125 453.8398132324219 1569.9755859375 446.5516967773438 C 1465.315185546875 442.3719482421875 1363.127319335938 439.0669555664063 1266.249877929688 436.7283630371094 C 1148.7763671875 433.8928833007813 1037.9560546875 432.4550476074219 936.8675537109375 432.4550476074219 C 839.3449096679688 432.4550476074219 736.2156372070313 434.203369140625 630.343994140625 437.6517028808594 C 542.2056274414063 440.5224304199219 451.2908630371094 444.5962219238281 360.1246643066406 449.7600402832031 C 289.351806640625 453.7688598632813 218.7449188232422 458.4109802246094 150.2653961181641 463.5576477050781 C 94.07624053955078 467.7807006835938 51.41462707519531 471.435791015625 25.3670597076416 473.7734985351563 Z" stroke="none"/>
    <path d="M 25.8668212890625 253.9998168945313 L 25.8668212890625 473.2267761230469 C 51.9642333984375 470.8869323730469 94.426025390625 467.2530212402344 150.227783203125 463.05908203125 C 218.71044921875 457.9121704101563 289.3204345703125 453.2698059082031 360.0963134765625 449.260986328125 C 451.2666015625 444.0969543457031 542.1856689453125 440.0228881835938 630.3277587890625 437.1519470214844 C 736.2049560546875 433.70361328125 839.3397216796875 431.9550476074219 936.8677978515625 431.9550476074219 C 1037.960205078125 431.9550476074219 1148.784423828125 433.3928833007813 1266.26220703125 436.2286071777344 C 1363.14208984375 438.5671691894531 1465.33251953125 441.8721923828125 1569.995361328125 446.0519409179688 C 1751.882080078125 453.3159790039063 1891.304809570313 461.1895141601563 1943.866577148438 464.3043518066406 L 1943.866577148438 253.9998168945313 L 25.8668212890625 253.9998168945313 M 24.8668212890625 252.9998168945313 L 1944.866577148438 252.9998168945313 L 1944.866577148438 465.3655090332031 C 1850.125122070313 459.741455078125 1375.844970703125 432.9550476074219 936.8677978515625 432.9550476074219 C 514.6834716796875 432.9550476074219 125.1463623046875 465.3112182617188 24.8668212890625 474.3204956054688 L 24.8668212890625 252.9998168945313 Z" stroke="none" fill="#707070"/>
  </g>
</svg>
