<svg xmlns="http://www.w3.org/2000/svg" xmlns:xlink="http://www.w3.org/1999/xlink" width="121" height="117" viewBox="0 0 121 117">
  <defs>
    <filter id="Ellipse_6" x="0" y="0" width="118" height="117" filterUnits="userSpaceOnUse">
      <feOffset dy="3" input="SourceAlpha"/>
      <feGaussianBlur stdDeviation="3" result="blur"/>
      <feFlood flood-opacity="0.161"/>
      <feComposite operator="in" in2="blur"/>
      <feComposite in="SourceGraphic"/>
    </filter>
  </defs>
  <g id="Group_119" data-name="Group 119" transform="translate(-594 -2545)">
    <g id="Group_104" data-name="Group 104" transform="translate(603 2551)">
      <g transform="matrix(1, 0, 0, 1, -9, -6)" filter="url(#Ellipse_6)">
        <g id="Ellipse_6-2" data-name="Ellipse 6" transform="translate(9 6)" fill="#fff" stroke="#383838" stroke-width="3">
          <ellipse cx="50" cy="49.5" rx="50" ry="49.5" stroke="none"/>
          <ellipse cx="50" cy="49.5" rx="48.5" ry="48" fill="none"/>
        </g>
      </g>
      <g id="collaboration" transform="translate(19.745 25.989)">
        <path id="Path_71" data-name="Path 71" d="M316.6,299a.883.883,0,0,0,.625-1.507l-1.267-1.267a.883.883,0,0,0-1.249,1.249l1.267,1.267A.88.88,0,0,0,316.6,299Z" transform="translate(-276.853 -267.401)"/>
        <circle id="Ellipse_2" data-name="Ellipse 2" cx="1.064" cy="1.064" r="1.064" transform="translate(5.82 13.164)"/>
        <path id="Path_72" data-name="Path 72" d="M60.757,69.945l-7.766-7.766a.883.883,0,0,0-1.249,1.249l7.641,7.641-4.915,4.915L42.275,63.79l4.915-4.915L48.814,60.5a.883.883,0,1,0,1.249-1.249L48.314,57.5a1.59,1.59,0,0,0-2.248,0L40.9,62.666a1.584,1.584,0,0,0-.368,1.669l-2.052,2.052a1.466,1.466,0,0,1-1.136.428l-10.812-.7A3.368,3.368,0,0,0,23.653,67.4a5.08,5.08,0,0,1-1-.779l-1.963-1.963a1.591,1.591,0,0,0-.368-1.668l-5.165-5.165a1.59,1.59,0,0,0-2.248,0L.465,70.269a1.591,1.591,0,0,0,0,2.248L5.63,77.682a1.59,1.59,0,0,0,2.248,0L19.546,66.014,21.4,67.87a6.841,6.841,0,0,0,1.4,1.08l-.592,1.2a2.215,2.215,0,0,1-.365.529L18.667,74.1a1.834,1.834,0,0,0,.585,2.92l1.347.611a4.961,4.961,0,0,0,1.7.294,5.1,5.1,0,0,0,3.255-1.176l2.591-2.139a.3.3,0,0,1,.254-.06l7.669,1.773c.079.018.157.035.236.05l.121.438a3.274,3.274,0,0,0,.839,1.442L49.081,90.067a.884.884,0,0,1,0,1.249l-1.637,1.637a.883.883,0,0,1-1.249,0l-1.32-1.32h0l-1.385-1.385A.883.883,0,1,0,42.241,91.5l1.769,1.769a.884.884,0,0,1,0,1.249L42.373,96.15a.883.883,0,0,1-1.249,0L34.973,90a.883.883,0,1,0-1.249,1.249l5.195,5.195a.884.884,0,0,1,0,1.248l-1.637,1.637a.884.884,0,0,1-1.249,0l-5.194-5.194a.877.877,0,0,0-1.334.1l-.576-.576h0a2.635,2.635,0,0,0-1-.626A2.64,2.64,0,0,0,27.3,90.29l-1.637-1.637h0a2.641,2.641,0,0,0-2.744-.627,2.629,2.629,0,0,0-.624-1l-1.637-1.637a2.653,2.653,0,0,0-3.3-.356,2.631,2.631,0,0,0-.543-.794L15.177,82.6h0a2.629,2.629,0,0,0-1.79-.772c-.046-.049-2.369-2.375-2.369-2.375A.883.883,0,0,0,9.769,80.7l1.786,1.786c-.042.037-.084.073-.124.113l-1.376,1.376a3.15,3.15,0,0,0,0,4.45l.934.934a3.125,3.125,0,0,0,2.225.922h.056c0,.019,0,.037,0,.056a3.126,3.126,0,0,0,.922,2.225l.934.934a3.137,3.137,0,0,0,2.225.92h.006a3.014,3.014,0,0,0,.883,2.194l1.108,1.108a3,3,0,0,0,2.138.886h.055s0,0,0,0a3.126,3.126,0,0,0,.922,2.225l.934.934a3.145,3.145,0,0,0,4.379.068l2.009,2.009a2.649,2.649,0,0,0,3.747,0l1.637-1.637a2.636,2.636,0,0,0,.627-1,2.641,2.641,0,0,0,2.742-.626l1.637-1.637a2.628,2.628,0,0,0,.607-.951,2.647,2.647,0,0,0,2.847-.59l1.637-1.637a2.628,2.628,0,0,0,.611-.962,2.644,2.644,0,0,0,2.823-.6l1.637-1.637a2.653,2.653,0,0,0,0-3.747l-2.841-2.841L49.155,83a6.189,6.189,0,0,1,1.021-1.348l3.888-3.888a1.582,1.582,0,0,0,1.527-.411l5.165-5.165a1.591,1.591,0,0,0,0-2.248Zm-54,6.363L1.839,71.393,14.032,59.2l4.915,4.915Zm6.459,12.208a1.371,1.371,0,0,1-.976-.4l-.934-.934a1.382,1.382,0,0,1,0-1.952l1.376-1.376a.883.883,0,0,1,1.249,0l1.637,1.637a.884.884,0,0,1,0,1.249l-1.376,1.376a1.372,1.372,0,0,1-.976.4Zm3.159,3.73-.934-.934a1.38,1.38,0,0,1,0-1.952l2.724-2.724a.884.884,0,0,1,1.249,0l1.637,1.637a.884.884,0,0,1,0,1.249l-2.726,2.726A1.382,1.382,0,0,1,16.372,92.247Zm6,4.222a1.263,1.263,0,0,1-1.778,0L19.485,95.36a1.259,1.259,0,0,1,0-1.778L23.167,89.9a.887.887,0,0,1,1.249,0h0l1.637,1.637a.883.883,0,0,1,0,1.249Zm3.246,4.452a1.371,1.371,0,0,1-.976-.4l-.934-.934a1.38,1.38,0,0,1,0-1.951l2.724-2.724a.887.887,0,0,1,1.249,0h0l1.637,1.637a.884.884,0,0,1,0,1.249l-2.724,2.724A1.372,1.372,0,0,1,25.617,100.92Zm8.3.036-1.637,1.637a.883.883,0,0,1-1.249,0l-2.007-2.007,1.544-1.544a2.64,2.64,0,0,0,.773-1.91l2.577,2.577a.883.883,0,0,1,0,1.248ZM48.928,80.408a7.954,7.954,0,0,0-1.312,1.733l-1.423,2.539L38.512,77a1.5,1.5,0,0,1-.327-.494A7.656,7.656,0,0,0,40.4,76.06a.883.883,0,1,0-.6-1.661,5.885,5.885,0,0,1-3.331.2L28.8,72.826a2.075,2.075,0,0,0-1.776.418l-2.591,2.139A3.344,3.344,0,0,1,21.282,76l-1.3-.59c-.034,0-.054-.095-.022-.108l.056-.06,3.127-3.358a3.973,3.973,0,0,0,.657-.952l1.066-2.161a1.61,1.61,0,0,1,1.552-.9l10.812.7a3.24,3.24,0,0,0,2.5-.942l1.947-1.947L52.661,76.674Z" transform="translate(-0.001 -57.036)"/>
      </g>
    </g>
    <g id="Group_115" data-name="Group 115" transform="translate(681.299 2552.019)">
      <ellipse id="Ellipse_4" data-name="Ellipse 4" cx="17" cy="17.5" rx="17" ry="17.5" transform="translate(-0.299 -0.019)"/>
      <g id="Group_97" data-name="Group 97" transform="translate(9.514 14.175) rotate(-2)">
        <line id="Line_3" data-name="Line 3" x2="3.551" y2="4.247" transform="translate(0 2.4)" fill="none" stroke="#fff" stroke-linecap="round" stroke-width="3.5"/>
        <line id="Line_4" data-name="Line 4" y1="6.647" x2="10.561" transform="translate(3.551 0)" fill="none" stroke="#fff" stroke-linecap="round" stroke-width="3.5"/>
      </g>
    </g>
  </g>
</svg>
