<svg xmlns="http://www.w3.org/2000/svg" width="668.775" height="165.192" viewBox="0 0 668.775 165.192">
  <g id="Group_273" data-name="Group 273" transform="translate(-1258.724 -1015.023)" opacity="0.698">
    <g id="Group_260" data-name="Group 260" transform="translate(1449.295 1081.947) rotate(-158)" opacity="0.45">
      <path id="Path_127" data-name="Path 127" d="M6.921.155,8.769,3.9a.277.277,0,0,0,.209.152l4.131.6a.277.277,0,0,1,.154.473L10.273,8.036a.277.277,0,0,0-.08.245L10.9,12.4a.277.277,0,0,1-.4.292L6.8,10.745a.278.278,0,0,0-.258,0L2.85,12.687a.277.277,0,0,1-.4-.292l.706-4.114a.276.276,0,0,0-.08-.245L.084,5.122a.277.277,0,0,1,.154-.473l4.131-.6A.277.277,0,0,0,4.577,3.9L6.425.154A.277.277,0,0,1,6.921.155Z" transform="translate(0 0)" fill="#fff"/>
      <path id="Path_128" data-name="Path 128" d="M6.921.155,8.769,3.9a.277.277,0,0,0,.209.152l4.131.6a.277.277,0,0,1,.154.473L10.273,8.036a.277.277,0,0,0-.08.245L10.9,12.4a.277.277,0,0,1-.4.292L6.8,10.745a.277.277,0,0,0-.258,0L2.85,12.687a.277.277,0,0,1-.4-.292l.706-4.114a.277.277,0,0,0-.08-.245L.084,5.122a.277.277,0,0,1,.154-.473l4.131-.6A.277.277,0,0,0,4.577,3.9L6.425.155A.277.277,0,0,1,6.921.155Z" transform="translate(50.209 16.981)" fill="#fff"/>
    </g>
    <g id="Group_266" data-name="Group 266" transform="translate(1856.54 1160.56) rotate(-158)" opacity="0.45">
      <path id="Path_127-2" data-name="Path 127" d="M6.921.155,8.769,3.9a.277.277,0,0,0,.209.152l4.131.6a.277.277,0,0,1,.154.473L10.273,8.036a.277.277,0,0,0-.08.245L10.9,12.4a.277.277,0,0,1-.4.292L6.8,10.745a.278.278,0,0,0-.258,0L2.85,12.687a.277.277,0,0,1-.4-.292l.706-4.114a.276.276,0,0,0-.08-.245L.084,5.122a.277.277,0,0,1,.154-.473l4.131-.6A.277.277,0,0,0,4.577,3.9L6.425.154A.277.277,0,0,1,6.921.155Z" transform="translate(0 0)" fill="#fff"/>
      <path id="Path_128-2" data-name="Path 128" d="M6.921.155,8.769,3.9a.277.277,0,0,0,.209.152l4.131.6a.277.277,0,0,1,.154.473L10.273,8.036a.277.277,0,0,0-.08.245L10.9,12.4a.277.277,0,0,1-.4.292L6.8,10.745a.277.277,0,0,0-.258,0L2.85,12.687a.277.277,0,0,1-.4-.292l.706-4.114a.277.277,0,0,0-.08-.245L.084,5.122a.277.277,0,0,1,.154-.473l4.131-.6A.277.277,0,0,0,4.577,3.9L6.425.155A.277.277,0,0,1,6.921.155Z" transform="translate(50.209 16.981)" fill="#fff"/>
    </g>
    <g id="Group_261" data-name="Group 261" transform="translate(1359.989 1182.143) rotate(-158)" opacity="0.45">
      <circle id="Ellipse_25" data-name="Ellipse 25" cx="4.545" cy="4.545" r="4.545" transform="translate(0 70.068)" fill="#fff"/>
      <circle id="Ellipse_26" data-name="Ellipse 26" cx="4.545" cy="4.545" r="4.545" transform="translate(24.388 0)" fill="#fff"/>
    </g>
    <circle id="Ellipse_27" data-name="Ellipse 27" cx="4.545" cy="4.545" r="4.545" transform="translate(1527.393 1063.056) rotate(-158)" fill="#fff" opacity="0.45"/>
    <circle id="Ellipse_37" data-name="Ellipse 37" cx="4.545" cy="4.545" r="4.545" transform="translate(1570.392 1176.155) rotate(-158)" fill="#fff" opacity="0.45"/>
    <circle id="Ellipse_28" data-name="Ellipse 28" cx="1.786" cy="1.786" r="1.786" transform="translate(1590.903 1084.949) rotate(-158)" fill="#fff" opacity="0.45"/>
    <path id="Path_130" data-name="Path 130" d="M2.023,42.457H2.008a1.784,1.784,0,0,1-1.77-1.8C.264,37.476,2.363,35.47,4.214,33.7,5.707,32.275,7,31.044,7,29.484c0-1.633-1.383-2.92-2.985-4.41C2.115,23.309-.037,21.308,0,18.227c.037-3.1,2.241-5.023,4.185-6.72,1.8-1.567,2.887-2.615,2.892-3.942,0-1.31-1.063-2.347-2.822-3.9-.209-.184-.419-.369-.625-.556A1.785,1.785,0,1,1,6.019.458c.2.178.4.355.6.531,1.894,1.671,4.041,3.565,4.03,6.588S8.456,12.518,6.533,14.2C4.7,15.8,3.587,16.867,3.57,18.269c-.018,1.5,1.323,2.748,2.874,4.192,1.933,1.8,4.125,3.837,4.123,7.026,0,3.085-2.066,5.056-3.886,6.8-1.534,1.466-2.859,2.732-2.873,4.4A1.785,1.785,0,0,1,2.023,42.457Z" transform="translate(1268.596 1076.286) rotate(-158)" fill="#fff" opacity="0.45"/>
    <path id="Path_131" data-name="Path 131" d="M1.786,63.35h-.07A1.785,1.785,0,0,1,0,61.5c.114-2.973,2.29-4.734,4.038-6.149,1.651-1.337,2.666-2.222,2.716-3.509.054-1.414-1.159-2.661-2.565-4.1C2.4,45.9.371,43.812.4,40.657.423,37.475,2.522,35.47,4.373,33.7c1.493-1.426,2.782-2.658,2.783-4.217,0-1.633-1.383-2.92-2.985-4.41C2.274,23.309.122,21.307.159,18.226.2,15.126,2.4,13.2,4.345,11.507c1.8-1.567,2.887-2.615,2.892-3.942,0-1.309-1.063-2.346-2.821-3.9C4.206,3.482,4,3.3,3.789,3.111A1.785,1.785,0,0,1,6.178.458c.2.178.4.355.6.532,1.893,1.671,4.04,3.565,4.029,6.587-.011,3.038-2.191,4.94-4.114,6.619-1.833,1.6-2.947,2.671-2.963,4.073-.018,1.5,1.323,2.748,2.874,4.192,1.933,1.8,4.125,3.837,4.123,7.026,0,3.085-2.066,5.056-3.886,6.8-1.534,1.466-2.859,2.732-2.873,4.4S5.248,43.7,6.748,45.246c1.728,1.775,3.687,3.787,3.574,6.731-.114,2.972-2.289,4.732-4.037,6.147-1.652,1.337-2.667,2.222-2.717,3.511A1.785,1.785,0,0,1,1.786,63.35Z" transform="translate(1526.414 1095.606) rotate(-158)" fill="#fff" opacity="0.45"/>
    <path id="Path_132" data-name="Path 132" d="M1.786,63.35h-.07A1.785,1.785,0,0,1,0,61.5c.114-2.973,2.29-4.734,4.038-6.149,1.651-1.337,2.666-2.222,2.716-3.509.054-1.414-1.159-2.661-2.565-4.1C2.4,45.9.371,43.812.4,40.657.423,37.475,2.522,35.47,4.373,33.7c1.493-1.426,2.782-2.658,2.783-4.217,0-1.633-1.383-2.92-2.985-4.41C2.274,23.309.122,21.307.159,18.226.2,15.126,2.4,13.2,4.345,11.507c1.8-1.567,2.887-2.615,2.892-3.942,0-1.309-1.063-2.346-2.821-3.9C4.206,3.482,4,3.3,3.789,3.111A1.785,1.785,0,0,1,6.178.458c.2.178.4.355.6.532,1.893,1.671,4.04,3.565,4.029,6.587-.011,3.038-2.191,4.94-4.114,6.619-1.833,1.6-2.947,2.671-2.963,4.073-.018,1.5,1.323,2.748,2.874,4.192,1.933,1.8,4.125,3.837,4.123,7.026,0,3.085-2.066,5.056-3.886,6.8-1.534,1.466-2.859,2.732-2.873,4.4S5.248,43.7,6.748,45.246c1.728,1.775,3.687,3.787,3.574,6.731-.114,2.972-2.289,4.732-4.037,6.147-1.652,1.337-2.667,2.222-2.717,3.511A1.785,1.785,0,0,1,1.786,63.35Z" transform="matrix(0.574, 0.819, -0.819, 0.574, 1780.348, 1015.023)" fill="#fff" opacity="0.45"/>
    <circle id="Ellipse_29" data-name="Ellipse 29" cx="1.786" cy="1.786" r="1.786" transform="translate(1594.624 1141.047) rotate(-158)" fill="#fff" opacity="0.45"/>
    <circle id="Ellipse_30" data-name="Ellipse 30" cx="1.786" cy="1.786" r="1.786" transform="translate(1548.37 1082.487) rotate(-158)" fill="#fff" opacity="0.45"/>
    <circle id="Ellipse_31" data-name="Ellipse 31" cx="1.786" cy="1.786" r="1.786" transform="translate(1507.196 1103.882) rotate(-158)" fill="#fff" opacity="0.45"/>
    <g id="Group_263" data-name="Group 263" transform="translate(1331.896 1112.977) rotate(-158)" opacity="0.45">
      <circle id="Ellipse_34" data-name="Ellipse 34" cx="1.786" cy="1.786" r="1.786" transform="translate(56.306 60.322)" fill="#fff"/>
      <circle id="Ellipse_35" data-name="Ellipse 35" cx="1.786" cy="1.786" r="1.786" transform="translate(0 44.537)" fill="#fff"/>
      <circle id="Ellipse_36" data-name="Ellipse 36" cx="1.786" cy="1.786" r="1.786" transform="translate(29.896 0)" fill="#fff"/>
    </g>
    <ellipse id="Ellipse_38" data-name="Ellipse 38" cx="4.545" cy="4.545" rx="4.545" ry="4.545" transform="translate(1643.197 1054.628) rotate(-22)" fill="#fff" opacity="0.45"/>
    <g id="Group_267" data-name="Group 267" transform="translate(1817.989 1053.736) rotate(-22)" opacity="0.45">
      <ellipse id="Ellipse_34-2" data-name="Ellipse 34" cx="1.786" cy="1.786" rx="1.786" ry="1.786" transform="translate(56.306 0)" fill="#fff"/>
      <ellipse id="Ellipse_35-2" data-name="Ellipse 35" cx="1.786" cy="1.786" rx="1.786" ry="1.786" transform="translate(0 15.784)" fill="#fff"/>
      <ellipse id="Ellipse_36-2" data-name="Ellipse 36" cx="1.786" cy="1.786" rx="1.786" ry="1.786" transform="translate(29.896 60.322)" fill="#fff"/>
    </g>
    <g id="Group_264" data-name="Group 264" transform="translate(1478.205 1191.414) rotate(-158)" opacity="0.45">
      <circle id="Ellipse_34-3" data-name="Ellipse 34" cx="1.786" cy="1.786" r="1.786" transform="translate(56.306 60.322)" fill="#fff"/>
      <circle id="Ellipse_35-3" data-name="Ellipse 35" cx="1.786" cy="1.786" r="1.786" transform="translate(0 44.537)" fill="#fff"/>
      <circle id="Ellipse_36-3" data-name="Ellipse 36" cx="1.786" cy="1.786" r="1.786" transform="translate(29.896 0)" fill="#fff"/>
    </g>
    <g id="Group_265" data-name="Group 265" transform="translate(1660.114 1083.084)" opacity="0.45">
      <path id="Shape" d="M7.972.1A45.187,45.187,0,0,0,.582,3.575.977.977,0,0,0,.919,5.444a45.2,45.2,0,0,0,8.135.672,3.342,3.342,0,0,0,2.969-3.64A3.342,3.342,0,0,0,7.972.1Z" transform="translate(20.507 14.978) rotate(-25)" fill="#fff"/>
      <path id="Shape-2" data-name="Shape" d="M7.97,6.019A45.111,45.111,0,0,1,.579,2.542.977.977,0,0,1,.916.673,45.2,45.2,0,0,1,9.051,0a3.342,3.342,0,0,1,2.971,3.64A3.342,3.342,0,0,1,7.97,6.019Z" transform="translate(31.387 38.307) rotate(-25)" fill="#fff"/>
      <path id="Shape-3" data-name="Shape" d="M1.323,2.2A45.191,45.191,0,0,0,.016,10.259a.977.977,0,0,0,1.732.777A45.14,45.14,0,0,0,6.9,4.7,3.343,3.343,0,0,0,5.57.19a3.342,3.342,0,0,0-4.247,2Z" transform="translate(0 3.084) rotate(-25)" fill="#fff"/>
      <path id="Shape-4" data-name="Shape" d="M1.323,9.212A45.19,45.19,0,0,1,.016,1.154.977.977,0,0,1,1.749.377,45.14,45.14,0,0,1,6.9,6.711,3.343,3.343,0,0,1,5.57,11.217,3.342,3.342,0,0,1,1.323,9.212Z" transform="translate(25.093 56.894) rotate(-25)" fill="#fff"/>
      <path id="Shape-5" data-name="Shape" d="M6.85,3.394A36.265,36.265,0,0,0,1.2.123.778.778,0,0,0,.123,1.2,36.265,36.265,0,0,0,3.394,6.85,2.473,2.473,0,1,0,6.85,3.394Z" transform="translate(29.876 47.967) rotate(-25)" fill="#fff"/>
      <path id="Shape-6" data-name="Shape" d="M3.394.922A36.265,36.265,0,0,0,.123,6.574.778.778,0,0,0,1.2,7.649,36.265,36.265,0,0,0,6.85,4.378,2.673,2.673,0,0,0,7.14.632a2.673,2.673,0,0,0-3.746.29Z" transform="translate(11.447 8.453) rotate(-25)" fill="#fff"/>
      <path id="Shape-7" data-name="Shape" d="M6.92.007A36.165,36.165,0,0,0,.61,1.691a.778.778,0,0,0,0,1.52A36.164,36.164,0,0,0,6.92,4.894,2.672,2.672,0,0,0,9.774,2.451,2.672,2.672,0,0,0,6.92.007Z" transform="translate(21.641 29.337) rotate(-25)" fill="#fff"/>
      <path id="Shape-8" data-name="Shape" d="M6.682,3.226A33.949,33.949,0,0,0,1.184.11.784.784,0,0,0,.109,1.184a34.03,34.03,0,0,0,3.118,5.5A2.461,2.461,0,1,0,6.682,3.226Z" transform="translate(14.992 42.487) rotate(-25)" fill="#fff"/>
      <path id="Shape-9" data-name="Shape" d="M3.228.94A34.03,34.03,0,0,0,.11,6.438.784.784,0,0,0,1.185,7.513,33.938,33.938,0,0,0,6.684,4.4,2.461,2.461,0,1,0,3.228.94Z" transform="translate(6.072 23.36) rotate(-25)" fill="#fff"/>
      <path id="Shape-10" data-name="Shape" d="M6.682.018A33.973,33.973,0,0,0,.59,1.7a.784.784,0,0,0,0,1.52A33.973,33.973,0,0,0,6.682,4.906a2.462,2.462,0,1,0,0-4.887Z" transform="translate(8.349 35.523) rotate(-25)" fill="#fff"/>
    </g>
    <path id="Path_129" data-name="Path 129" d="M1.374,65.194H1.34A1.373,1.373,0,0,1,0,63.788c.055-2.293,1.715-3.719,3.049-4.866,1.317-1.132,2.119-1.9,2.148-2.959.032-1.2-.952-2.215-2.093-3.392C1.752,51.174.219,49.591.308,47.3s1.761-3.641,3.106-4.73c1.27-1.028,2.051-1.709,2.089-2.7.042-1.088-.892-2.047-1.973-3.157C2.153,35.3.592,33.7.612,31.274c.02-2.448,1.635-3.99,3.059-5.351,1.148-1.1,2.14-2.044,2.141-3.244,0-1.256-1.064-2.246-2.3-3.392C2.055,17.929.4,16.39.429,14.02s1.724-3.864,3.219-5.169C5.03,7.646,5.869,6.84,5.873,5.819s-.817-1.8-2.17-3c-.161-.142-.322-.284-.481-.428A1.373,1.373,0,1,1,5.059.353c.152.137.307.273.461.409C6.976,2.047,8.627,3.5,8.619,5.829s-1.685,3.8-3.165,5.091c-1.41,1.23-2.267,2.055-2.279,3.133-.014,1.155,1.017,2.114,2.211,3.224,1.487,1.383,3.173,2.951,3.171,5.4,0,2.373-1.589,3.889-2.989,5.228-1.18,1.127-2.2,2.1-2.21,3.388S4.343,33.618,5.5,34.8c1.33,1.365,2.836,2.913,2.749,5.178-.088,2.286-1.761,3.64-3.105,4.728-1.271,1.029-2.052,1.71-2.09,2.7-.043,1.114.916,2.1,2.026,3.25C6.449,52.078,8,53.685,7.942,56.037s-1.749,3.8-3.1,4.968c-1.286,1.106-2.069,1.849-2.094,2.85A1.372,1.372,0,0,1,1.374,65.194Z" transform="translate(1873.284 1074.158) rotate(-48)" fill="#fff" opacity="0.45"/>
  </g>
</svg>
