<svg xmlns="http://www.w3.org/2000/svg" width="18.291" height="18.291" viewBox="0 0 18.291 18.291">
  <path id="Icon_awesome-link" data-name="Icon awesome-link" d="M11.668,6.623a5.427,5.427,0,0,1,.013,7.666l-.013.013-2.4,2.4a5.43,5.43,0,0,1-7.68-7.68L2.914,7.7a.571.571,0,0,1,.975.379,6.583,6.583,0,0,0,.346,1.883.575.575,0,0,1-.135.593l-.468.468a2.572,2.572,0,1,0,3.614,3.661l2.4-2.4a2.572,2.572,0,0,0,0-3.638,2.676,2.676,0,0,0-.369-.306.573.573,0,0,1-.248-.45,1.423,1.423,0,0,1,.418-1.065l.752-.752a.574.574,0,0,1,.735-.062,5.447,5.447,0,0,1,.733.614ZM16.7,1.588a5.436,5.436,0,0,0-7.68,0l-2.4,2.4L6.61,4a5.431,5.431,0,0,0,.746,8.281.574.574,0,0,0,.735-.062l.752-.752A1.423,1.423,0,0,0,9.262,10.4a.573.573,0,0,0-.248-.45,2.676,2.676,0,0,1-.369-.306,2.572,2.572,0,0,1,0-3.638l2.4-2.4A2.572,2.572,0,1,1,14.659,7.27l-.468.468a.575.575,0,0,0-.135.593,6.583,6.583,0,0,1,.346,1.883.571.571,0,0,0,.975.379L16.7,9.267a5.436,5.436,0,0,0,0-7.68Z" transform="translate(0 0)" fill="#fff"/>
</svg>
