<svg xmlns="http://www.w3.org/2000/svg" width="26.292" height="20.858" viewBox="0 0 26.292 20.858">
  <g id="Icon_ionic-md-mail-unread" data-name="Icon ionic-md-mail-unread" transform="translate(-2.25 -4.5)">
    <path id="Path_122" data-name="Path 122" d="M33.128,8.126A3.626,3.626,0,1,1,29.5,4.5a3.626,3.626,0,0,1,3.626,3.626Z" transform="translate(-4.586 0)"/>
    <path id="Path_123" data-name="Path 123" d="M22.133,12.617l-7.191,4.794L4.97,10.764V8.345l9.973,6.647,5.729-3.819A5.095,5.095,0,0,1,20.6,5.625H4.67a2.426,2.426,0,0,0-2.42,2.42V23.157a2.426,2.426,0,0,0,2.42,2.42H25.221a2.426,2.426,0,0,0,2.42-2.42v-10.5a5.1,5.1,0,0,1-5.508-.04Z" transform="translate(0 -0.218)"/>
  </g>
</svg>
