<svg xmlns="http://www.w3.org/2000/svg" width="34.738" height="36.709" viewBox="0 0 34.738 36.709">
  <g id="human-foot-prints" opacity="0.701">
    <g id="Group_362" data-name="Group 362">
      <g id="Group_350" data-name="Group 350" transform="translate(0 6.292)">
        <path id="Path_171" data-name="Path 171" d="M18.524,76.966c.064.469.17.95.275,1.413l0,.021c.443,1.974.791,3.531-1.627,4.452l-.469.217a3.759,3.759,0,0,1-.48.032c-3.977,0-6.414-6.381-6.551-9.658-.214-6.814,1.437-10.695,4.9-11.53a16.812,16.812,0,0,1,3.039-.26c1.554,0,4.348.214,5.59,1.64a2.837,2.837,0,0,1,.6,2.354c-.269,1.942-1.379,3.255-2.554,4.644C19.777,72.041,18.25,73.844,18.524,76.966Zm.366,1.417Z" transform="translate(-9.658 -61.654)"/>
      </g>
      <g id="Group_351" data-name="Group 351" transform="translate(12.36)">
        <path id="Path_172" data-name="Path 172" d="M132.433,5.645a1.486,1.486,0,0,1-.487-.082,1.777,1.777,0,0,1-1.057-1.238,3.559,3.559,0,0,1,.1-2.184A2.9,2.9,0,0,1,133.4,0a1.513,1.513,0,0,1,.487.082c1.06.377,1.486,1.912.952,3.422A2.9,2.9,0,0,1,132.433,5.645Z" transform="translate(-130.764)"/>
      </g>
      <g id="Group_352" data-name="Group 352" transform="translate(8.692 1.112)">
        <path id="Path_173" data-name="Path 173" d="M94.884,12.089c.156-.681.633-1.193,1.11-1.193a.645.645,0,0,1,.141.016c.514.12.789.838.613,1.606-.167.734-.753,1.3-1.251,1.177C94.983,13.576,94.708,12.857,94.884,12.089Z" transform="translate(-94.831 -10.896)"/>
      </g>
      <g id="Group_353" data-name="Group 353" transform="translate(5.598 1.606)">
        <path id="Path_174" data-name="Path 174" d="M64.509,16.929a1.44,1.44,0,0,1,.2-.86.638.638,0,0,1,.509-.328c.39,0,.751.505.786,1.1a1.426,1.426,0,0,1-.2.86.634.634,0,0,1-.476.326l-.032,0C64.9,18.028,64.546,17.535,64.509,16.929Z" transform="translate(-64.506 -15.741)"/>
      </g>
      <g id="Group_354" data-name="Group 354" transform="translate(2.602 2.4)">
        <path id="Path_175" data-name="Path 175" d="M35.241,23.943a.652.652,0,0,1,.413-.413.541.541,0,0,1,.124-.014c.371,0,.756.4.9.926a1.349,1.349,0,0,1-.1,1,.581.581,0,0,1-.35.287.425.425,0,0,1-.121.014c-.368,0-.761-.4-.9-.922A1.423,1.423,0,0,1,35.241,23.943Z" transform="translate(-35.156 -23.515)"/>
      </g>
      <g id="Group_355" data-name="Group 355" transform="translate(0.394 4.396)">
        <path id="Path_176" data-name="Path 176" d="M13.576,43.374a.433.433,0,0,1,.275-.284.335.335,0,0,1,.082-.011c.258,0,.537.3.635.676a1.038,1.038,0,0,1-.022.647.439.439,0,0,1-.276.283c-.267.066-.608-.249-.716-.665A1.041,1.041,0,0,1,13.576,43.374Z" transform="translate(-13.514 -43.079)"/>
      </g>
      <g id="Group_356" data-name="Group 356" transform="translate(20.551 15.265)">
        <path id="Path_177" data-name="Path 177" d="M218.649,171.018a3.823,3.823,0,0,1-.48-.031l-.488-.226c-2.4-.913-2.049-2.471-1.6-4.463.1-.463.21-.944.275-1.429.274-3.107-1.252-4.912-2.729-6.658-1.176-1.39-2.284-2.7-2.553-4.645a2.838,2.838,0,0,1,.6-2.354c1.242-1.426,4.035-1.638,5.59-1.638a16.873,16.873,0,0,1,3.027.256c3.473.837,5.126,4.718,4.912,11.531C225.064,164.637,222.625,171.018,218.649,171.018Z" transform="translate(-211.03 -149.573)"/>
      </g>
      <g id="Group_357" data-name="Group 357" transform="translate(18.073 8.969)">
        <path id="Path_178" data-name="Path 178" d="M188.417,87.886a2.9,2.9,0,0,1,2.406,2.142,3.546,3.546,0,0,1,.1,2.183,1.778,1.778,0,0,1-1.057,1.238,1.475,1.475,0,0,1-.487.082,2.9,2.9,0,0,1-2.405-2.141c-.534-1.512-.108-3.046.953-3.422A1.457,1.457,0,0,1,188.417,87.886Z" transform="translate(-186.748 -87.886)"/>
      </g>
      <g id="Group_358" data-name="Group 358" transform="translate(24.077 10.083)">
        <path id="Path_179" data-name="Path 179" d="M246.38,98.794c.477,0,.954.513,1.112,1.192.175.767-.1,1.489-.615,1.605a.54.54,0,0,1-.135.016c-.473,0-.963-.523-1.115-1.193-.177-.768.1-1.486.614-1.606A.753.753,0,0,1,246.38,98.794Z" transform="translate(-245.573 -98.794)"/>
      </g>
      <g id="Group_359" data-name="Group 359" transform="translate(27.638 10.576)">
        <path id="Path_180" data-name="Path 180" d="M280.471,104.731c.036-.613.4-1.1.82-1.1a.643.643,0,0,1,.476.327,1.436,1.436,0,0,1,.2.859c-.037.605-.39,1.1-.787,1.1h-.031a.64.64,0,0,1-.479-.328A1.432,1.432,0,0,1,280.471,104.731Z" transform="translate(-280.467 -103.634)"/>
      </g>
      <g id="Group_360" data-name="Group 360" transform="translate(30.568 11.837)">
        <path id="Path_181" data-name="Path 181" d="M309.232,116.909c.137-.527.52-.926.894-.926a.491.491,0,0,1,.124.016.638.638,0,0,1,.412.413,1.423,1.423,0,0,1,.031.877c-.15.577-.628,1.011-1.018.91a.6.6,0,0,1-.351-.289A1.357,1.357,0,0,1,309.232,116.909Z" transform="translate(-309.179 -115.983)"/>
      </g>
      <g id="Group_361" data-name="Group 361" transform="translate(33.25 13.835)">
        <path id="Path_182" data-name="Path 182" d="M335.5,136.24c.1-.379.379-.676.637-.676a.27.27,0,0,1,.079.01.439.439,0,0,1,.276.284,1.052,1.052,0,0,1,.021.648c-.1.377-.379.674-.64.674a.316.316,0,0,1-.075-.009.435.435,0,0,1-.276-.283A1.029,1.029,0,0,1,335.5,136.24Z" transform="translate(-335.458 -135.564)"/>
      </g>
    </g>
  </g>
</svg>
