<svg xmlns="http://www.w3.org/2000/svg" width="239.535" height="232.54" viewBox="0 0 239.535 232.54">
  <g id="Path_137" data-name="Path 137" transform="translate(0 1.921)" fill="none">
    <path d="M185-1.921c51.087,0,54.531,79.873,54.531,143.758S143.589,230.619,92.5,230.619,0,178.83,0,114.945,133.917-1.921,185-1.921Z" stroke="none"/>
    <path d="M 185.0039978027344 0.078857421875 C 172.4500427246094 0.078857421875 154.7353515625 3.342926025390625 135.1231994628906 9.269760131835938 C 125.0771331787109 12.30572509765625 114.8661270141602 15.93692016601563 104.7738189697266 20.06248474121094 C 94.15922546386719 24.40158081054688 83.90109252929688 29.19851684570313 74.28434753417969 34.320068359375 C 64.03462219238281 39.77873229980469 54.59437561035156 45.56645202636719 46.22581481933594 51.52244567871094 C 37.26559448242188 57.89958190917969 29.5076904296875 64.49166870117188 23.16754150390625 71.11567687988281 C 16.39772033691406 78.18861389160156 11.17509460449219 85.37376403808594 7.644729614257813 92.47163391113281 C 5.801406860351563 96.17770385742188 4.3916015625 99.92117309570313 3.4544677734375 103.5980758666992 C 2.489349365234375 107.3847961425781 2 111.2022933959961 2 114.9445114135742 C 2 122.6849822998047 2.62347412109375 130.4197387695313 3.853073120117188 137.9339294433594 C 5.05078125 145.2532348632813 6.837600708007813 152.4516906738281 9.163848876953125 159.3292846679688 C 11.44610595703125 166.0768585205078 14.27012634277344 172.5834808349609 17.55754089355469 178.6683654785156 C 20.80996704101563 184.6885986328125 24.54376220703125 190.3480224609375 28.65519714355469 195.4893798828125 C 32.7601318359375 200.6226043701172 37.27484130859375 205.2811431884766 42.073974609375 209.3355102539063 C 46.90969848632813 213.4208526611328 52.07659912109375 216.9283294677734 57.43116760253906 219.7604217529297 C 62.87454223632813 222.6395416259766 68.56869506835938 224.8501739501953 74.35543823242188 226.3309478759766 C 80.28756713867188 227.8489227294922 86.39297485351563 228.6186065673828 92.50199890136719 228.6186065673828 C 98.96356201171875 228.6186065673828 105.9523468017578 228.2205505371094 113.274284362793 227.4354858398438 C 120.9711303710938 226.6101989746094 128.8274078369141 225.3774566650391 136.6249389648438 223.771484375 C 144.9486999511719 222.0571136474609 153.1053771972656 219.935791015625 160.8683776855469 217.4664154052734 C 169.2106628417969 214.8127899169922 177.1038513183594 211.75341796875 184.3286285400391 208.373291015625 C 200.520263671875 200.7980194091797 213.2730102539063 191.7068176269531 222.2326354980469 181.3522033691406 C 227.1375732421875 175.6836090087891 230.9136047363281 169.5931701660156 233.4558868408203 163.2500457763672 C 236.1624145507813 156.4970703125 237.5347595214844 149.2927551269531 237.5347595214844 141.8372955322266 C 237.5347595214844 128.0040435791016 237.3834075927734 109.9016418457031 236.2030944824219 92.55935668945313 C 234.9508819580078 74.15969848632813 232.7553863525391 59.09457397460938 229.4911651611328 46.50308227539063 C 227.6456298828125 39.38404846191406 225.4262237548828 33.01167297363281 222.8946228027344 27.56298828125 C 220.1999359130859 21.76329040527344 217.0656890869141 16.82405090332031 213.5789489746094 12.88241577148438 C 209.9140319824219 8.739395141601563 205.7404479980469 5.566009521484375 201.1740417480469 3.450393676757813 C 196.3452911376953 1.21319580078125 190.9048767089844 0.078857421875 185.0039978027344 0.078857421875 M 185.0039978027344 -1.921142578125 C 236.0914459228516 -1.921142578125 239.5347595214844 77.9522705078125 239.5347595214844 141.8372955322266 C 239.5347595214844 205.7223205566406 143.5894470214844 230.6186065673828 92.50199890136719 230.6186065673828 C 41.41456604003906 230.6186065673828 0 178.8295745849609 0 114.9445114135742 C 0 51.05947875976563 133.9165649414063 -1.921142578125 185.0039978027344 -1.921142578125 Z" stroke="none" fill="#f0b921"/>
  </g>
</svg>
