<svg xmlns="http://www.w3.org/2000/svg" width="563.914" height="503.427" viewBox="0 0 563.914 503.427">
  <g id="Group_369" data-name="Group 369" transform="translate(-4413.043 2734.713)">
    <path id="Path_135" data-name="Path 135" d="M373-1.921c103,0,109.943,148.09,109.943,266.536S289.5,429.22,186.5,429.22,0,333.2,0,214.754,270-1.921,373-1.921Z" transform="translate(4458.043 -2696.792)"/>
    <path id="Path_136" data-name="Path 136" d="M290.1-1.921c80.108,0,85.508,115.175,85.508,207.3S225.157,333.4,145.049,333.4,0,258.717,0,166.6,209.989-1.921,290.1-1.921Z" transform="translate(4530.043 -2628.792)" fill="#fdb515"/>
    <g id="Path_137" data-name="Path 137" transform="translate(4413.043 -2732.792)" fill="none">
      <path d="M435.537-1.921C555.808-1.921,563.914,171,563.914,309.3s-225.875,192.2-346.145,192.2S0,389.387,0,251.082,315.267-1.921,435.537-1.921Z" stroke="none"/>
      <path d="M 435.5374755859375 0.078826904296875 C 405.7098999023438 0.078826904296875 363.71240234375 7.185028076171875 317.2811889648438 20.08837890625 C 293.5458068847656 26.68453979492188 269.4224548339844 34.57330322265625 245.5812377929688 43.53561401367188 C 220.5052490234375 52.9620361328125 196.2694702148438 63.38409423828125 173.5469665527344 74.51223754882813 C 149.312744140625 86.38082885742188 126.9870300292969 98.96832275390625 107.1900939941406 111.9251708984375 C 85.95846557617188 125.8209533691406 67.56658935546875 140.1940307617188 52.52532958984375 154.6451721191406 C 44.61767578125 162.2426147460938 37.52801513671875 169.9723205566406 31.45330810546875 177.6198120117188 C 25.17022705078125 185.5294494628906 19.81646728515625 193.5484008789063 15.5406494140625 201.4537353515625 C 11.12451171875 209.6185913085938 7.745361328125 217.8714599609375 5.49725341796875 225.9830932617188 C 3.17657470703125 234.3562316894531 1.99993896484375 242.8008117675781 1.99993896484375 251.0822448730469 C 1.99993896484375 267.9560241699219 3.47808837890625 284.8183898925781 6.393310546875 301.2009582519531 C 9.23388671875 317.1641235351563 13.47216796875 332.8651733398438 18.99041748046875 347.8680419921875 C 24.4071044921875 362.5950927734375 31.11102294921875 376.7984008789063 38.9158935546875 390.0833740234375 C 46.64404296875 403.2378845214844 55.51824951171875 415.606689453125 65.29217529296875 426.8460998535156 C 75.06167602539063 438.0805969238281 85.8101806640625 448.2790222167969 97.23916625976563 457.1581115722656 C 108.7717590332031 466.11767578125 121.0988159179688 473.8121643066406 133.8781127929688 480.02783203125 C 146.8876037597656 486.3555297851563 160.5006103515625 491.2150268554688 174.3388977050781 494.4713134765625 C 188.5355224609375 497.8120422363281 203.1474609375 499.5058898925781 217.7687377929688 499.5058898925781 C 233.0823059082031 499.5058898925781 249.6382446289063 498.6390380859375 266.9766845703125 496.9294738769531 C 285.1875915527344 495.1338806152344 303.7743835449219 492.4519653320313 322.2208251953125 488.958251953125 C 341.9137573242188 485.2283935546875 361.2131042480469 480.6126708984375 379.5829467773438 475.2391662597656 C 399.3381042480469 469.46044921875 418.0343017578125 462.7962341308594 435.1524047851563 455.4314575195313 C 453.5777587890625 447.5043334960938 470.3551635742188 438.6838989257813 485.0184631347656 429.2153930664063 C 492.7406616210938 424.2289428710938 499.9995422363281 418.9801025390625 506.5933837890625 413.6148071289063 C 513.4176635742188 408.0618896484375 519.70654296875 402.2401733398438 525.2852172851563 396.3113098144531 C 531.0517578125 390.1828918457031 536.2113647460938 383.7783813476563 540.6210327148438 377.2756042480469 C 545.1743774414063 370.5607299804688 549.0499877929688 363.5610961914063 552.1400756835938 356.470947265625 C 555.32958984375 349.1528930664063 557.7691650390625 341.5390319824219 559.3909301757813 333.8408203125 C 561.065185546875 325.8939819335938 561.9140014648438 317.6381225585938 561.9140014648438 309.3026123046875 C 561.9140014648438 288.7616577148438 561.7288818359375 271.9107666015625 561.3314819335938 256.2718200683594 C 560.8304443359375 236.5571594238281 559.9937744140625 218.9597473144531 558.773681640625 202.4739685058594 C 557.3819580078125 183.6690368652344 555.449462890625 166.1333312988281 553.0299072265625 150.3538818359375 C 550.339599609375 132.8088989257813 546.9321899414063 116.6643981933594 542.9021606445313 102.368896484375 C 540.7511596679688 94.73867797851563 538.3710327148438 87.44760131835938 535.8278198242188 80.69830322265625 C 533.1878662109375 73.69216918945313 530.2933959960938 67.06024169921875 527.2246704101563 60.98666381835938 C 524.0504760742188 54.70416259765625 520.5960083007813 48.83352661132813 516.95751953125 43.53775024414063 C 513.204833984375 38.07589721679688 509.1460266113281 33.065185546875 504.8939514160156 28.6448974609375 C 500.5174560546875 24.09524536132813 495.8076782226563 20.03753662109375 490.8954467773438 16.58453369140625 C 485.8433837890625 13.03317260742188 480.4282531738281 10.01675415039063 474.8004760742188 7.6190185546875 C 469.0108032226563 5.152313232421875 462.8254699707031 3.267669677734375 456.416259765625 2.01751708984375 C 449.821044921875 0.731109619140625 442.79638671875 0.078826904296875 435.5374755859375 0.078826904296875 M 435.5374755859375 -1.921173095703125 C 555.8078002929688 -1.921173095703125 563.9140014648438 170.9973754882813 563.9140014648438 309.3026123046875 C 563.9140014648438 447.6077575683594 338.0391235351563 501.5058898925781 217.7687377929688 501.5058898925781 C 97.49838256835938 501.5058898925781 -6.103515625e-05 389.387451171875 -6.103515625e-05 251.0822448730469 C -6.103515625e-05 112.7770385742188 315.26708984375 -1.921173095703125 435.5374755859375 -1.921173095703125 Z" stroke="none" fill="#f0b921"/>
    </g>
  </g>
</svg>
