<svg xmlns="http://www.w3.org/2000/svg" width="1920" height="1705.557" viewBox="0 0 1920 1705.557">
  <g id="Group_370" data-name="Group 370" transform="translate(10104 1427.806)">
    <path id="Union_2" data-name="Union 2" d="M0,1587.359V0C.3.1,31.281,10,84.442,24.645,115.6,33.232,148.131,41.73,181.12,49.906c41.234,10.219,83.322,19.962,125.094,28.958C412.526,101.757,517.422,120,617.985,133.081c29.075,3.783,58.165,7.177,86.459,10.089,29.792,3.066,59.53,5.684,88.386,7.779,30.268,2.2,60.4,3.882,89.574,5.006,30.5,1.175,60.785,1.771,90.023,1.771s59.431-.6,89.744-1.771c28.992-1.124,58.864-2.809,88.785-5.006,28.526-2.1,57.851-4.712,87.161-7.779,27.837-2.912,56.391-6.306,84.869-10.089,98.5-13.082,200.523-31.325,303.229-54.218,40.352-9,80.9-18.738,120.531-28.958,31.7-8.176,62.887-16.674,92.7-25.261C1890.237,10.013,1919.708.1,1920,0V1587.359s-467.573,118.2-947.573,118.2S0,1587.359,0,1587.359Z" transform="translate(-10104 -1427.806)" fill="#f9f0d1"/>
    <circle id="Ellipse_49" data-name="Ellipse 49" cx="523.5" cy="523.5" r="523.5" transform="translate(-9659 -1178)" fill="#f7e9ba"/>
  </g>
</svg>
