<svg id="house" xmlns="http://www.w3.org/2000/svg" width="57" height="46.978" viewBox="0 0 57 46.978">
  <path id="Path_94" data-name="Path 94" d="M43.281,50.264H35.473a.839.839,0,1,1,0-1.677h6.97V28.607H11.157V48.586H21.264a.839.839,0,1,1,0,1.677H10.319a.839.839,0,0,1-.839-.839V27.769a.839.839,0,0,1,.839-.839H43.281a.839.839,0,0,1,.839.839V49.425A.839.839,0,0,1,43.281,50.264Z" transform="translate(-4.065 -6.021)"/>
  <path id="Path_95" data-name="Path 95" d="M32.835,54.427H30.369a.839.839,0,1,1,0-1.677h2.466a.839.839,0,0,1,0,1.677Z" transform="translate(-7.298 -10.184)"/>
  <path id="Path_96" data-name="Path 96" d="M47.655,24.587H3.862a.839.839,0,0,1-.579-1.445l21.9-20.91a.839.839,0,0,1,1.158,0l21.9,20.91a.839.839,0,0,1-.579,1.445ZM5.955,22.91H45.562L25.758,4Z" transform="translate(-3.024 -2)"/>
  <path id="Path_97" data-name="Path 97" d="M65.818,50.6a.839.839,0,0,1-.839-.839V12.879a.839.839,0,0,1,1.677,0v36.88A.839.839,0,0,1,65.818,50.6Z" transform="translate(-13.015 -3.619)"/>
  <path id="Path_98" data-name="Path 98" d="M68.526,17.069a.839.839,0,0,1-.593-.246l-2.76-2.76-2.759,2.759a.839.839,0,1,1-1.186-1.186l3.355-3.355a.839.839,0,0,1,1.187,0l3.355,3.355a.839.839,0,0,1-.593,1.432Z" transform="translate(-12.37 -3.619)"/>
  <path id="Path_99" data-name="Path 99" d="M65.173,57.042a.839.839,0,0,1-.593-.246l-3.355-3.355a.839.839,0,1,1,1.186-1.186l2.759,2.76,2.76-2.76a.839.839,0,1,1,1.186,1.186L65.762,56.8A.839.839,0,0,1,65.173,57.042Z" transform="translate(-12.37 -10.065)"/>
</svg>
