<svg id="measuring-tape" xmlns="http://www.w3.org/2000/svg" width="62.117" height="39.187" viewBox="0 0 62.117 39.187">
  <path id="Path_90" data-name="Path 90" d="M61.207,119.673H37.944V108.337a3.065,3.065,0,0,0-.971-2.521l-.619-.685L38.712,103a1.555,1.555,0,0,0,.108-2.192l-4.726-5.23a3.28,3.28,0,0,0-4.624-.229l-1.078.975-.511-.565a2.556,2.556,0,0,0-2-.969H18.972a18.991,18.991,0,0,0,0,37.982h4.461a.91.91,0,1,0,0-1.82H18.972a17.171,17.171,0,0,1,0-34.342h6.906c.228,0,.368.05.649.365L27.636,98.2l.016.019.017.017,7.955,8.8a1.361,1.361,0,0,1,.5,1.3v22.611H27.631a.91.91,0,1,0,0,1.82h8.663a1.652,1.652,0,0,0,1.649-1.65v-1.6H60.3v3.263a.91.91,0,0,0,1.82,0V120.583A.91.91,0,0,0,61.207,119.673ZM30.692,96.693a1.46,1.46,0,0,1,2.053.1l4.547,5.033-2.158,1.954L29.612,97.67Zm7.252,24.8h2.905v1.039a.91.91,0,0,0,1.82,0v-1.039h2.905v2.254a.91.91,0,0,0,1.82,0v-2.254H50.3v1.039a.91.91,0,0,0,1.82,0v-1.039h2.905v6.2H37.944Zm18.9,6.2v-6.2H60.3v6.2Z" transform="translate(0 -94.499)"/>
  <path id="Path_91" data-name="Path 91" d="M50.477,147.44a13.3,13.3,0,1,0,3.513-2.538.91.91,0,0,0,.813,1.628,11.349,11.349,0,0,1,5.117-1.2,11.508,11.508,0,1,1-8.152,3.395.91.91,0,1,0-1.291-1.283Z" transform="translate(-40.947 -137.563)"/>
  <path id="Path_92" data-name="Path 92" d="M86.372,192.994a9.675,9.675,0,1,0-9.666-9.675A9.681,9.681,0,0,0,86.372,192.994Zm0-17.53a7.855,7.855,0,1,1-7.846,7.855A7.859,7.859,0,0,1,86.372,175.464Z" transform="translate(-67.4 -164.042)"/>
  <path id="Path_93" data-name="Path 93" d="M121.895,231.828h5.42a1.677,1.677,0,0,0,1.673-1.678V226.6a1.677,1.677,0,0,0-1.673-1.678h-5.42a1.679,1.679,0,0,0-1.677,1.678v3.553a1.679,1.679,0,0,0,1.677,1.678Zm.143-5.088h5.13v3.268h-5.13Z" transform="translate(-105.633 -209.097)"/>
</svg>
