<svg xmlns="http://www.w3.org/2000/svg" width="31.218" height="27.487" viewBox="0 0 31.218 27.487">
  <g id="stairs" transform="translate(0 0)">
    <g id="Group_343" data-name="Group 343" transform="translate(0 0)">
      <g id="Group_342" data-name="Group 342">
        <path id="Path_165" data-name="Path 165" d="M30.609,30.6H21.341a.61.61,0,0,0-.61.61v2.439a.61.61,0,0,0,.61.61h1.22v4.56H10.975a.61.61,0,0,0-.61.61v2.439a.61.61,0,0,0,.61.61h1.22v4.561H.61a.61.61,0,0,0-.61.61v2.439a.61.61,0,0,0,.61.61h.853v6.781a.61.61,0,0,0,.61.61H13.155a.61.61,0,0,0,.379-.132L30.987,44.114a.61.61,0,0,0,.231-.478V31.208A.61.61,0,0,0,30.609,30.6ZM11.585,41.256v-1.22H22.56v1.22ZM1.219,49.475v-1.22H12.195v1.22ZM30,35.432H27.5a.61.61,0,1,0,0,1.219H30v6.69L12.943,56.866H2.683v-3.8h2.5a.61.61,0,1,0,0-1.219h-2.5V50.695H12.8a.61.61,0,0,0,.61-.61V42.476H23.17a.61.61,0,0,0,.61-.61V34.257H30Zm0-2.395H21.95v-1.22H30Z" transform="translate(0 -30.598)"/>
        <path id="Path_166" data-name="Path 166" d="M104.388,379.144h-.014a.61.61,0,0,0,0,1.219h.014a.61.61,0,1,0,0-1.219Z" transform="translate(-97.437 -357.892)"/>
        <path id="Path_167" data-name="Path 167" d="M412.608,111.1h.014a.61.61,0,0,0,0-1.219h-.014a.61.61,0,1,0,0,1.219Z" transform="translate(-386.877 -105.046)"/>
      </g>
    </g>
  </g>
</svg>
