<svg xmlns="http://www.w3.org/2000/svg" width="462" height="83.142" viewBox="0 0 462 83.142">
  <g id="Group_372" data-name="Group 372" transform="translate(5636 5552.001)">
    <g id="Group_371" data-name="Group 371" transform="translate(-5636 -5552.001)">
      <path id="Path_183" data-name="Path 183" d="M0,0,72.615,43.974H0Z" transform="translate(43.974 4.926) rotate(90)" fill="#fff"/>
      <path id="Path_185" data-name="Path 185" d="M20.774.015C30.019-.458,37.021,10.78,37.021,10.78L0,11.615S1.246,8.882,6.536,5.33C10.118,2.915,16.382.239,20.774.015Z" transform="translate(60.604) rotate(60)" fill="#fff"/>
      <path id="Path_184" data-name="Path 184" d="M48.267.013S65.94-1.108,72.932,17.869c.721,1.958,1.24,3.325,1.854,5.167.216.636.642,2.524.642,2.524s.311,4.048.808,12.786c.826,14.513,0,37.576,0,37.576L0,29.97Z" transform="translate(76.733 6.538) rotate(90)" fill="#fff"/>
    </g>
    <text id="Bhikari_Atelier" data-name="Bhikari Atelier" transform="translate(-5530 -5490)" fill="#fff" font-size="49" font-family="EuphemiaUCAS, Euphemia UCAS" letter-spacing="0.053em"><tspan x="0" y="0">Bhikari Atelier</tspan></text>
  </g>
</svg>
