<svg xmlns="http://www.w3.org/2000/svg" width="135.615" height="103.915" viewBox="0 0 135.615 103.915">
  <g id="Group_308" data-name="Group 308" transform="translate(-895.711 -1209.281)">
    <g id="Path_153" data-name="Path 153" transform="matrix(0.966, -0.259, 0.259, 0.966, 895.711, 1229.643)" fill="none" opacity="0.34">
      <path d="M60.763,0c16.779,0,17.91,24.124,17.91,43.42S47.161,70.234,30.381,70.234,0,54.592,0,35.3,43.984,0,60.763,0Z" stroke="none"/>
      <path d="M 60.76291275024414 2.999992370605469 C 56.84087371826172 2.999992370605469 51.24043655395508 3.956123352050781 44.99325180053711 5.692230224609375 C 38.27162551879883 7.560195922851562 31.49941253662109 10.12419509887695 25.40873718261719 13.10707092285156 C 18.65558624267578 16.41438293457031 13.05522155761719 20.11369705200195 9.213088989257812 23.80508422851562 C 5.090385437011719 27.76602172851562 3 31.63250732421875 3 35.29713439941406 C 3 39.65914535522461 3.741233825683594 43.88613128662109 5.203109741210938 47.86068344116211 C 6.607086181640625 51.67781066894531 8.612052917480469 55.10024642944336 11.16230010986328 58.03290939331055 C 13.68609619140625 60.93515777587891 16.61506271362305 63.20891952514648 19.86781311035156 64.79102325439453 C 23.20112609863281 66.41230773925781 26.73842620849609 67.234375 30.38146209716797 67.234375 C 34.60366058349609 67.234375 39.59907531738281 66.72864532470703 44.44748687744141 65.81037139892578 C 49.96247482299805 64.76583099365234 55.21383666992188 63.20857238769531 59.63383483886719 61.30694580078125 C 64.65621185302734 59.14615631103516 68.58201599121094 56.58472061157227 71.30221557617188 53.69379425048828 C 72.72403717041016 52.18270874023438 73.81207275390625 50.57423400878906 74.53608703613281 48.91303253173828 C 75.29051208496094 47.18203353881836 75.67304992675781 45.33377075195312 75.67304992675781 43.41959381103516 C 75.67304992675781 33.50732040405273 75.36408996582031 23.23878479003906 73.12272644042969 15.28804779052734 C 71.98255920410156 11.24359512329102 70.41987609863281 8.169334411621094 68.47803497314453 6.150680541992188 C 66.43862915039062 4.030593872070312 63.91498565673828 2.999992370605469 60.76291275024414 2.999992370605469 M 60.76291275024414 -7.62939453125e-06 C 77.54212188720703 -7.62939453125e-06 78.67304992675781 24.12429428100586 78.67304992675781 43.41959381103516 C 78.67304992675781 62.71489715576172 47.16067504882812 70.234375 30.38146209716797 70.234375 C 13.60223388671875 70.234375 0 54.59243392944336 0 35.29713439941406 C 0 16.0018196105957 43.98369979858398 -7.62939453125e-06 60.76291275024414 -7.62939453125e-06 Z" stroke="none" fill="#f3b744"/>
    </g>
    <g id="Path_154" data-name="Path 154" transform="matrix(0.966, -0.259, 0.259, 0.966, 943.93, 1270.634)" fill="none">
      <path d="M47,7.129c16.779,0,31.673-9.176,31.673,10.12S47.161,44.063,30.381,44.063,0,28.421,0,9.126,30.221,7.129,47,7.129Z" stroke="none"/>
      <path d="M 9.618186950683594 2.999996185302734 C 7.2801513671875 2.999996185302734 5.58697509765625 3.426834106445312 4.585700988769531 4.268646240234375 C 4.110260009765625 4.668359756469727 3.753715515136719 5.189285278320312 3.495658874511719 5.861185073852539 C 3.166763305664062 6.717535018920898 3 7.815971374511719 3 9.125984191894531 C 3 13.48799705505371 3.741233825683594 17.71498489379883 5.203109741210938 21.68953323364258 C 6.607086181640625 25.50666046142578 8.612052917480469 28.92909622192383 11.16230010986328 31.86174774169922 C 13.68609619140625 34.76401138305664 16.61506271362305 37.03775787353516 19.86781311035156 38.61985778808594 C 23.20112609863281 40.24114608764648 26.73842620849609 41.06320953369141 30.38146209716797 41.06320953369141 C 34.60366058349609 41.06320953369141 39.59907531738281 40.5574836730957 44.44748687744141 39.63920974731445 C 49.96247482299805 38.59467315673828 55.21383666992188 37.03741073608398 59.63383483886719 35.13578414916992 C 64.65621185302734 32.97499847412109 68.58201599121094 30.41355895996094 71.30221557617188 27.52263450622559 C 72.72403717041016 26.01155853271484 73.81207275390625 24.40308380126953 74.53608703613281 22.74188423156738 C 75.29052734375 21.01088333129883 75.67304992675781 19.16262245178223 75.67304992675781 17.24844741821289 C 75.67304992675781 13.4051342010498 75.03517150878906 10.78128433227539 73.77715301513672 9.449785232543945 C 73.11666107177734 8.750696182250977 71.94118499755859 7.948284149169922 68.68691253662109 7.948459625244141 C 66.27204895019531 7.948585510253906 63.29238891601562 8.393360137939453 60.13777542114258 8.864259719848633 C 56.16715240478516 9.456958770751953 51.66676330566406 10.12874794006348 46.99978637695312 10.12874794006348 C 41.16196060180664 10.12874794006348 34.03156280517578 8.235147476196289 27.13592529296875 6.403896331787109 C 20.83443832397461 4.730434417724609 14.31839752197266 2.999996185302734 9.618186950683594 2.999996185302734 M 9.618186950683594 -3.814697265625e-06 C 19.91726684570312 -3.814697265625e-06 36.22808837890625 7.128747940063477 46.99978637695312 7.128747940063477 C 55.17842864990234 7.128747940063477 62.910400390625 4.948762893676758 68.686767578125 4.948457717895508 C 74.76113891601562 4.948135375976562 78.67304992675781 7.358192443847656 78.67304992675781 17.24844741821289 C 78.67304992675781 36.54373550415039 47.16067504882812 44.06320953369141 30.38146209716797 44.06320953369141 C 13.60223388671875 44.06320953369141 0 28.42128372192383 0 9.125984191894531 C 0 2.217641830444336 3.874275207519531 -3.814697265625e-06 9.618186950683594 -3.814697265625e-06 Z" stroke="none" fill="#f3b744"/>
    </g>
  </g>
</svg>
