<svg xmlns="http://www.w3.org/2000/svg" width="1813" height="247.003" viewBox="0 0 1813 247.003">
  <path id="Subtraction_5" data-name="Subtraction 5" d="M389.319,372C190.188,372,40.986,358.08,0,353.812V125.169H1811.531c-55.875,6.592-124.123,19.266-202.848,37.67-46.554,10.883-97.361,23.923-151.009,38.758-58.908,16.287-122.7,35.143-189.61,56.042-35.91,11.215-73.626,21.767-112.1,31.36-36.772,9.168-75.2,17.7-114.207,25.368-37.144,7.3-75.814,14.006-114.935,19.934-37.075,5.618-75.527,10.685-114.29,15.059C679.405,364.38,537.016,372,389.319,372ZM1813,125.169h-1.469l1.217-.143L1813,125v.171Z" transform="translate(0 -124.997)"/>
</svg>
