<svg xmlns="http://www.w3.org/2000/svg" xmlns:xlink="http://www.w3.org/1999/xlink" width="121" height="117" viewBox="0 0 121 117">
  <defs>
    <filter id="Ellipse_5" x="0" y="0" width="118" height="117" filterUnits="userSpaceOnUse">
      <feOffset dy="3" input="SourceAlpha"/>
      <feGaussianBlur stdDeviation="3" result="blur"/>
      <feFlood flood-opacity="0.161"/>
      <feComposite operator="in" in2="blur"/>
      <feComposite in="SourceGraphic"/>
    </filter>
  </defs>
  <g id="Group_118" data-name="Group 118" transform="translate(-594 -2275)">
    <g id="Group_101" data-name="Group 101" transform="translate(603 2281)">
      <g transform="matrix(1, 0, 0, 1, -9, -6)" filter="url(#Ellipse_5)">
        <g id="Ellipse_5-2" data-name="Ellipse 5" transform="translate(9 6)" fill="#fff" stroke="#383838" stroke-width="3">
          <ellipse cx="50" cy="49.5" rx="50" ry="49.5" stroke="none"/>
          <ellipse cx="50" cy="49.5" rx="48.5" ry="48" fill="none"/>
        </g>
      </g>
      <path id="planet-earth" d="M57.247,6.74a23.27,23.27,0,0,0-2.016-4.588.864.864,0,0,0-.914-.386,23.263,23.263,0,0,0-4.694,1.751C46.293,5.18,43.967,7.4,42.9,9.935a12.43,12.43,0,0,0-.387,7.544,24.023,24.023,0,0,0-4.517-3.931,34.991,34.991,0,0,0-3.926-6.018A.847.847,0,0,0,32.751,8.6a33.919,33.919,0,0,1,3.126,4.6l-7.717-1.5-7.332-10a11.952,11.952,0,0,1,2.137.218,14.63,14.63,0,0,1,6.618,3.411.848.848,0,0,0,1.1-1.29A16.3,16.3,0,0,0,23.291.248C19.41-.512,14.883.485,10.2,3.132A33.822,33.822,0,0,0,4.275,7.364a.9.9,0,0,0-.1,1.163,34.566,34.566,0,0,0,3.8,5.964,26.49,26.49,0,0,0,4,4.116q-.592.5-1.15,1.041a19.585,19.585,0,0,0,6.336,32.145.848.848,0,0,0,.637-1.57,17.885,17.885,0,0,1-3.664-2.016A9.545,9.545,0,0,0,12.7,41.526c-.269-.418.534-2.061,1.014-3.042a15.883,15.883,0,0,0,1.244-3.041,2.318,2.318,0,0,0-.824-2.54,6.252,6.252,0,0,0-2.014-.893,4.333,4.333,0,0,1-1.107-.433,11.293,11.293,0,0,1-1.434-2.334A14.483,14.483,0,0,0,8.029,26.7a18.014,18.014,0,0,1,5.348-7.046A14.817,14.817,0,0,0,20.515,22.3c-2.994,2.32-3.962,5.282-2.578,8.128,1.617,3.323,4.944,2.792,7.879,2.324.508-.081,1.033-.165,1.537-.228.189-.024.246.028.284.061.643.572.624,3.3.61,5.3-.019,2.758-.036,5.364.991,6.7a2.586,2.586,0,0,0,2.127,1.031,4.271,4.271,0,0,0,1.673-.378c2.555-1.094,5.211-4.387,4.806-6.993-.354-2.278-.588-3.783-.036-5,.511-1.123,1.745-2.162,4.177-3.489A17.889,17.889,0,0,1,22.545,51.42a.848.848,0,0,0-.185,1.684,19.692,19.692,0,0,0,15.856-5.466,19.572,19.572,0,0,0-3.013-30.4c1.119-.8,1.953-1.488,2.415-1.889A22.492,22.492,0,1,1,2.335,29.979.848.848,0,0,0,.663,29.7,24.179,24.179,0,0,0,20.582,57.5a24.514,24.514,0,0,0,3.992.329A24.2,24.2,0,0,0,46.7,23.992a24.4,24.4,0,0,0,3.906-1.539c3.329-1.662,5.655-3.882,6.727-6.417S58.376,10.286,57.247,6.74ZM8.078,30.034a10.55,10.55,0,0,0,1.846,2.843,4.859,4.859,0,0,0,1.7.753c1.656.509,1.848.759,1.689,1.414a14.787,14.787,0,0,1-1.119,2.7c-.875,1.79-1.7,3.48-.918,4.7a8.057,8.057,0,0,1,1.282,4.495A18.055,18.055,0,0,1,7.333,28.667C7.582,29.094,7.844,29.59,8.078,30.034ZM49.066,13.386,46.658,7.551a15.855,15.855,0,0,1,3.688-2.5,22.612,22.612,0,0,1,2.677-1.127Zm5.52-8.805a22.725,22.725,0,0,1,1.06,2.709,16.2,16.2,0,0,1,.767,4.084L50.77,13.7ZM44.456,10.595A8.069,8.069,0,0,1,45.4,8.95l2.741,6.641-2.459,5.881a22.493,22.493,0,0,1-1.1-2.79C43.893,16.492,43.308,13.311,44.456,10.595Zm5.427,10.326a22.508,22.508,0,0,1-2.592,1.1l2.552-6.1,6.5-2.681a8.173,8.173,0,0,1-.567,2.141C54.626,18.093,51.937,19.891,49.884,20.921Zm-30.547-.482c-.3-.059-.595-.13-.886-.212l9.376-6.873,7.72,1.5C32.734,17.074,25.89,21.723,19.336,20.439Zm-8.569-5.3A32.981,32.981,0,0,1,6.449,9.187L16.273,11.1ZM12.5,3.835l4.111,5.607L6.725,7.515A33.4,33.4,0,0,1,12.5,3.835ZM19.064,9.92l-4.983-6.8a19.055,19.055,0,0,1,4.735-1.31l6.894,9.4Zm-.527,1.623,7.026,1.369-9.018,6.61a17.527,17.527,0,0,1-4.57-3.17ZM41.524,28.086c-3.054,1.627-4.55,2.905-5.259,4.464-.762,1.674-.483,3.471-.1,5.958.228,1.467-1.515,4.2-3.8,5.175-.845.362-1.447.319-1.789-.127-.673-.876-.655-3.527-.64-5.658.02-2.947.038-5.492-1.178-6.574a2,2,0,0,0-1.618-.477c-.533.066-1.073.152-1.6.236-3.114.5-5.074.695-6.089-1.392-1.645-3.38,1.685-5.884,3.193-6.8a5.367,5.367,0,0,0,.857-.653,24.631,24.631,0,0,0,10.156-3.958A17.983,17.983,0,0,1,41.524,28.086Zm0,0" transform="translate(21.004 20.486)"/>
    </g>
    <g id="Group_99" data-name="Group 99" transform="translate(681 2282)">
      <ellipse id="Ellipse_4" data-name="Ellipse 4" cx="17" cy="17.5" rx="17" ry="17.5" transform="translate(0 0)"/>
      <g id="Group_97" data-name="Group 97" transform="translate(11.267 15.063) rotate(-2)">
        <line id="Line_3" data-name="Line 3" x2="2.819" y2="3.371" transform="translate(0 3.278)" fill="none" stroke="#fff" stroke-linecap="round" stroke-width="3.5"/>
        <line id="Line_4" data-name="Line 4" y1="6.65" x2="11.291" transform="translate(2.819 0)" fill="none" stroke="#fff" stroke-linecap="round" stroke-width="3.5"/>
      </g>
    </g>
  </g>
</svg>
