<svg xmlns="http://www.w3.org/2000/svg" xmlns:xlink="http://www.w3.org/1999/xlink" width="119" height="117" viewBox="0 0 119 117">
  <defs>
    <filter id="Ellipse_7" x="0" y="0" width="118" height="117" filterUnits="userSpaceOnUse">
      <feOffset dy="3" input="SourceAlpha"/>
      <feGaussianBlur stdDeviation="3" result="blur"/>
      <feFlood flood-opacity="0.161"/>
      <feComposite operator="in" in2="blur"/>
      <feComposite in="SourceGraphic"/>
    </filter>
  </defs>
  <g id="Group_116" data-name="Group 116" transform="translate(-151 -2545)">
    <g id="Group_103" data-name="Group 103" transform="translate(160 2551)">
      <g transform="matrix(1, 0, 0, 1, -9, -6)" filter="url(#Ellipse_7)">
        <g id="Ellipse_7-2" data-name="Ellipse 7" transform="translate(9 6)" fill="#fff" stroke="#383838" stroke-width="3">
          <ellipse cx="50" cy="49.5" rx="50" ry="49.5" stroke="none"/>
          <ellipse cx="50" cy="49.5" rx="48.5" ry="48" fill="none"/>
        </g>
      </g>
      <g id="excellence" transform="translate(32.748 21.896)">
        <path id="Path_68" data-name="Path 68" d="M125.315,24.048a7.274,7.274,0,0,0-1.122-3.033l5.057-7.217a8.628,8.628,0,0,0,.6-9.078A8.628,8.628,0,0,0,122.07,0h-7.979l-.026,0-.02,0a8.628,8.628,0,0,0-7.777,4.72,8.628,8.628,0,0,0,.6,9.078l5.057,7.217a7.272,7.272,0,0,0-1.123,3.04,17.278,17.278,0,0,0-9.89,13.584A17.276,17.276,0,0,0,131,51.165a.836.836,0,0,0-1.251-1.107,15.606,15.606,0,1,1,3.8-8.449,16.527,16.527,0,0,1-1.9,5.82.836.836,0,0,0,1.464.805,18.233,18.233,0,0,0,2.1-6.424,17.305,17.305,0,0,0-9.891-17.762ZM107.75,5.492a6.969,6.969,0,0,1,5.683-3.8l3.752,12.389-1.179,3.892a7.321,7.321,0,0,0-2.974,1.71l-4.8-6.848A6.983,6.983,0,0,1,107.75,5.492ZM118.058,11.2l-2.887-9.532h5.774Zm5.026,8.485a7.294,7.294,0,0,0-5.026-2.005c-.073,0-.146,0-.218.006L122.683,1.7a6.969,6.969,0,0,1,5.683,3.8,6.983,6.983,0,0,1-.484,7.348Zm-5.026-.334a5.661,5.661,0,0,1,5.392,3.959,17.271,17.271,0,0,0-10.785,0A5.661,5.661,0,0,1,118.058,19.353Z" transform="translate(-100.786 -1)"/>
        <path id="Path_69" data-name="Path 69" d="M161.39,250.346a11.84,11.84,0,1,0,11.84,11.84A11.853,11.853,0,0,0,161.39,250.346Zm0,22.009a10.169,10.169,0,1,1,10.169-10.169A10.181,10.181,0,0,1,161.39,272.355Z" transform="translate(-144.118 -222.34)"/>
        <path id="Path_70" data-name="Path 70" d="M208.038,301.445l-2.558-1.4a.231.231,0,0,1-.093-.093l-1.4-2.557a1.9,1.9,0,0,0-3.341,0l-1.4,2.558a.233.233,0,0,1-.093.093l-2.557,1.4a1.9,1.9,0,0,0,0,3.341l2.558,1.4a.232.232,0,0,1,.092.092l1.4,2.558a1.9,1.9,0,0,0,3.341,0l1.4-2.558a.232.232,0,0,1,.093-.092l2.557-1.4a1.9,1.9,0,0,0,0-3.341Zm-.8,1.875-2.557,1.4a1.9,1.9,0,0,0-.757.757l-1.4,2.557a.233.233,0,0,1-.409,0l-1.4-2.557a1.9,1.9,0,0,0-.757-.757l-2.557-1.4a.233.233,0,0,1,0-.409l2.557-1.4a1.9,1.9,0,0,0,.757-.757l1.4-2.557a.233.233,0,0,1,.409,0l1.4,2.557a1.9,1.9,0,0,0,.757.757l2.557,1.4a.233.233,0,0,1,0,.409Z" transform="translate(-185.047 -263.27)"/>
      </g>
    </g>
    <g id="Group_114" data-name="Group 114" transform="translate(236.299 2552.019)">
      <ellipse id="Ellipse_4" data-name="Ellipse 4" cx="17" cy="17.5" rx="17" ry="17.5" transform="translate(-0.299 -0.019)"/>
      <g id="Group_97" data-name="Group 97" transform="translate(9.514 14.175) rotate(-2)">
        <line id="Line_3" data-name="Line 3" x2="3.551" y2="4.247" transform="translate(0 2.4)" fill="none" stroke="#fff" stroke-linecap="round" stroke-width="3.5"/>
        <line id="Line_4" data-name="Line 4" y1="6.647" x2="10.561" transform="translate(3.551 0)" fill="none" stroke="#fff" stroke-linecap="round" stroke-width="3.5"/>
      </g>
    </g>
  </g>
</svg>
