<svg xmlns="http://www.w3.org/2000/svg" width="157.681" height="160.635" viewBox="0 0 157.681 160.635">
  <g id="day20-rocket" transform="translate(-13.995 -60.332)" style="mix-blend-mode: luminosity;isolation: isolate">
    <path id="XMLID_29_" d="M475.269,655.323c-2.024.258-3.639,3.1-3.94,5.447a16.305,16.305,0,0,0-.129,2.045,17.52,17.52,0,0,0,1.335,6.545,14.156,14.156,0,0,0,3.7,5.555,13.929,13.929,0,0,0,3.7-5.555,17.519,17.519,0,0,0,1.335-6.545,16.305,16.305,0,0,0-.129-2.045c-.3-2.368-1.916-5.189-3.94-5.447A9.706,9.706,0,0,0,475.269,655.323Z" transform="translate(-369.749 -516.938)" fill="none" stroke="#601b23" stroke-linecap="round" stroke-linejoin="round" stroke-miterlimit="10" stroke-width="6"/>
    <path id="XMLID_35_" d="M475.269,655.323c-2.024.258-3.639,3.1-3.94,5.447a16.305,16.305,0,0,0-.129,2.045,17.52,17.52,0,0,0,1.335,6.545,14.156,14.156,0,0,0,3.7,5.555,13.929,13.929,0,0,0,3.7-5.555,17.519,17.519,0,0,0,1.335-6.545,16.305,16.305,0,0,0-.129-2.045c-.3-2.368-1.916-5.189-3.94-5.447A9.706,9.706,0,0,0,475.269,655.323Z" transform="translate(-369.749 -516.938)" fill="#e36535"/>
    <path id="XMLID_178_" d="M470.764,668.793a31.313,31.313,0,0,1-2.39,11.734c-.043.129-.108.258-.172.409-1.55,3.7-3.768,7.407-6.459,9.581-2.777-2.239-5.038-6.093-6.61-9.9-.021-.022-.021-.043-.043-.086a31.314,31.314,0,0,1-2.39-11.734,30.476,30.476,0,0,1,.237-3.682c.517-4.177,3.359-9.215,6.911-9.753.043,0,.086-.021.129-.021a16.125,16.125,0,0,1,3.38-.022.366.366,0,0,1,.151.022c3.617.452,6.524,5.555,7.041,9.775A35.523,35.523,0,0,1,470.764,668.793Z" transform="translate(-355.232 -516.908)" fill="#f4a045"/>
    <path id="XMLID_177_" d="M470.764,668.793a31.313,31.313,0,0,1-2.39,11.734c-.043.129-.108.258-.172.409-1.55,3.7-3.768,7.407-6.459,9.581-2.777-2.239-5.038-6.093-6.61-9.9-.021-.022-.021-.043-.043-.086a31.314,31.314,0,0,1-2.39-11.734,30.476,30.476,0,0,1,.237-3.682c.517-4.177,3.359-9.215,6.911-9.753.043,0,.086-.021.129-.021a16.125,16.125,0,0,1,3.38-.022.366.366,0,0,1,.151.022c3.617.452,6.524,5.555,7.041,9.775A35.523,35.523,0,0,1,470.764,668.793Z" transform="translate(-355.232 -516.908)" fill="none" stroke="#601b23" stroke-linecap="round" stroke-linejoin="round" stroke-miterlimit="10" stroke-width="1"/>
    <path id="Subtraction_3" data-name="Subtraction 3" d="M-11055.933-1843.717a.327.327,0,0,1-.072,0c0-.812.024-1.627.073-2.423a16.525,16.525,0,0,0,1.716,2.4C-11055.154-1843.726-11055.735-1843.717-11055.933-1843.717Zm27.2-.555v0h0a16.333,16.333,0,0,0,3.095-6.389,12.418,12.418,0,0,0,3.864-2.151,12.544,12.544,0,0,0,4.311-7.068c2.662-4.166,6.491-6.555,10.5-6.555a11.112,11.112,0,0,1,7.1,2.67c2.716-4.637,6.752-7.3,11.07-7.3s8.341,2.648,11.046,7.266a90,90,0,0,0,7.643-17.648,102.283,102.283,0,0,0,3.524-15.3,110.365,110.365,0,0,0,1.232-16.46c0-.966-.022-1.994-.039-2.745l0-.164,0-.117a108.588,108.588,0,0,0-2.226-19.185,97.658,97.658,0,0,0-5.329-17.384h18.622a97.971,97.971,0,0,0-5.328,17.37,108.459,108.459,0,0,0-2.229,19.169v.036c-.019.878-.041,1.971-.041,3.05a109.858,109.858,0,0,0,1.266,16.7,100.576,100.576,0,0,0,3.622,15.45,95.519,95.519,0,0,0,4.435,11.334,8.453,8.453,0,0,1,4.521-1.365,9.36,9.36,0,0,1,7.3,4c2.858-7.227,8.347-11.717,14.32-11.717a12.257,12.257,0,0,1,5.3,1.218,15.516,15.516,0,0,1,4.571,3.375,21.219,21.219,0,0,1,3.547,5.129,26.93,26.93,0,0,1,2.236,6.472,11.566,11.566,0,0,1,6.438,5.426,19.77,19.77,0,0,1,2.581,9.966v.092l.827-.02.146,0c.716-.017,1.233-.03,1.571-.04a11.778,11.778,0,0,0-2.545.447v-.383C-10918.9-1846.689-10990.09-1845.1-11028.736-1844.272Zm129.552-2.892h0v0c.275-.017.553-.025.827-.025h.033l-.006,0-.462.014-.392.011Zm-139.863-23.612h0a16.713,16.713,0,0,0-2.646-.211c-.15,0-.307,0-.465.007a16.3,16.3,0,0,1,5.089-1.6,12.52,12.52,0,0,0-1.978,1.8Z" transform="translate(11070 2064.685)" fill="#ffd1d1"/>
    <path id="XMLID_79_" d="M348.419,402.909l-7.019,2.734V392.316L362.952,375.5v25.213l-5.21,2.734A11.234,11.234,0,0,0,348.419,402.909Z" transform="translate(-267.896 -297.401)" fill="#c11a4d"/>
    <path id="XMLID_19_" d="M318.166,442.951a19.27,19.27,0,0,1-3.466-10.981,19.572,19.572,0,0,1,5.34-13.371,19.712,19.712,0,0,1,5.383,13.371,19.361,19.361,0,0,1-3.445,10.981Z" transform="translate(-246.945 -331.221)" fill="#cf264d"/>
    <path id="XMLID_83_" d="M341.4,456.177l6.976-2.713a25.057,25.057,0,0,0-.388-5.641,25.931,25.931,0,0,0-2.821-7.923l-3.768,2.95Z" transform="translate(-267.896 -347.935)" fill="#a5143a" opacity="0.72"/>
    <path id="XMLID_63_" d="M342.3,396.04l20.67-16.105V375.5L341.4,392.294v13.349l.9-.344Z" transform="translate(-267.896 -297.401)" fill="#f4a15d" opacity="0.23"/>
    <path id="XMLID_69_" d="M397.384,402.306a10.88,10.88,0,0,1,3.359,1.141l5.21-2.734V375.5l-9.086,7.084a52.487,52.487,0,0,0-.667,8.548A54.868,54.868,0,0,0,397.384,402.306Z" transform="translate(-310.897 -297.401)" fill="#a5143a" opacity="0.72"/>
    <path id="XMLID_72_" d="M348.419,402.909l-7.019,2.734V392.316L362.952,375.5v25.213l-5.21,2.734A11.234,11.234,0,0,0,348.419,402.909Z" transform="translate(-267.896 -297.401)" fill="none" stroke="#601b23" stroke-linecap="round" stroke-linejoin="round" stroke-miterlimit="10" stroke-width="1"/>
    <path id="XMLID_34_" d="M318.166,442.951a19.27,19.27,0,0,1-3.466-10.981,19.572,19.572,0,0,1,5.34-13.371,19.712,19.712,0,0,1,5.383,13.371,19.361,19.361,0,0,1-3.445,10.981Z" transform="translate(-246.945 -331.221)" fill="#cf264d"/>
    <path id="XMLID_37_" d="M318.383,418.6c.258.28.517.581.754.883a21.781,21.781,0,0,0-3.553,11.8c0,4.263.646,8.246,2.842,11.691h-1.981A19.412,19.412,0,0,1,313,431.992,19.725,19.725,0,0,1,318.383,418.6Z" transform="translate(-245.611 -331.221)" fill="#f4a15d" opacity="0.23"/>
    <path id="XMLID_4_" d="M318.383,418.6a3.746,3.746,0,0,1,.258.3,22.568,22.568,0,0,0-.969,24.071h-1.227A19.412,19.412,0,0,1,313,431.992,19.725,19.725,0,0,1,318.383,418.6Z" transform="translate(-245.611 -331.221)" fill="#f4a15d" opacity="0.32"/>
    <path id="XMLID_9_" d="M342.136,431.971a19.553,19.553,0,0,0-5.383-13.371c-.258.28-.517.581-.754.883a21.464,21.464,0,0,1,.108,23.49h2.584A19.533,19.533,0,0,0,342.136,431.971Z" transform="translate(-263.659 -331.221)" fill="#a5143a" opacity="0.37"/>
    <path id="XMLID_45_" d="M343.941,431.971a19.553,19.553,0,0,0-5.383-13.371,3.746,3.746,0,0,0-.258.3,22.568,22.568,0,0,1,.969,24.071H340.5A19.532,19.532,0,0,0,343.941,431.971Z" transform="translate(-265.463 -331.221)" fill="#a5143a" opacity="0.72"/>
    <path id="XMLID_10_" d="M336.754,418.6c-.258.28-.517.581-.754.883a21.464,21.464,0,0,1,.108,23.49h2.584a19.412,19.412,0,0,0,3.445-10.981A19.725,19.725,0,0,0,336.754,418.6Z" transform="translate(-263.659 -331.221)" fill="#a5143a" opacity="0.37"/>
    <path id="XMLID_16_" d="M338.558,418.6a3.746,3.746,0,0,0-.258.3,22.568,22.568,0,0,1,.969,24.071H340.5a19.412,19.412,0,0,0,3.445-10.981A19.724,19.724,0,0,0,338.558,418.6Z" transform="translate(-265.463 -331.221)" fill="#a5143a" opacity="0.72"/>
    <path id="XMLID_95_" d="M330.184,422.4a21.747,21.747,0,0,0-2.842-3.9,21.006,21.006,0,0,0-2.842,3.9Z" transform="translate(-254.635 -331.142)" fill="#601b23"/>
    <path id="XMLID_28_" d="M318.166,442.951a19.27,19.27,0,0,1-3.466-10.981,19.572,19.572,0,0,1,5.34-13.371,19.712,19.712,0,0,1,5.383,13.371,19.361,19.361,0,0,1-3.445,10.981Z" transform="translate(-246.945 -331.221)" fill="none" stroke="#601b23" stroke-linecap="round" stroke-linejoin="round" stroke-miterlimit="10" stroke-width="1"/>
    <path id="XMLID_31_" d="M409.659,529.1s-2.605.56-6.352,4.306a71.882,71.882,0,0,0-5.06,6.2,1.135,1.135,0,0,1-2.045-.646l-.517-22.93a2.266,2.266,0,0,1,.474-1.809L401.8,507.2Z" transform="translate(-310.469 -400.745)" fill="#cf264d"/>
    <path id="XMLID_24_" d="M396.159,539.41h0a2.543,2.543,0,0,0,2.175-2.476l.237-21.315a2.266,2.266,0,0,1,.474-1.809l3.531-4.414-.8-2.2-5.62,7a2.288,2.288,0,0,0-.474,1.809Z" transform="translate(-310.469 -400.745)" fill="#f4a15d" opacity="0.32"/>
    <path id="XMLID_84_" d="M420.681,529.1l-7.859-21.9-3.122,3.9a86.357,86.357,0,0,0,7.9,19.571A9.841,9.841,0,0,1,420.681,529.1Z" transform="translate(-321.49 -400.745)" fill="#a5143a" opacity="0.72"/>
    <path id="XMLID_21_" d="M409.659,529.1s-2.605.56-6.352,4.306a71.882,71.882,0,0,0-5.06,6.2,1.135,1.135,0,0,1-2.045-.646l-.517-22.93a2.266,2.266,0,0,1,.474-1.809L401.8,507.2Z" transform="translate(-310.469 -400.745)" fill="none" stroke="#601b23" stroke-linecap="round" stroke-linejoin="round" stroke-miterlimit="10" stroke-width="1"/>
    <path id="XMLID_32_" d="M0,0H7.084" transform="translate(69.176 108.888)" fill="none" stroke="#601b23" stroke-linecap="round" stroke-width="2"/>
    <path id="XMLID_192_" d="M318.166,442.951a19.27,19.27,0,0,1-3.466-10.981,19.572,19.572,0,0,1,5.34-13.371,19.712,19.712,0,0,1,5.383,13.371,19.361,19.361,0,0,1-3.445,10.981Z" transform="translate(-246.945 -331.221)" fill="#cf264d"/>
    <path id="XMLID_161_" d="M318.166,442.951a19.27,19.27,0,0,1-3.466-10.981,19.572,19.572,0,0,1,5.34-13.371,19.712,19.712,0,0,1,5.383,13.371,19.361,19.361,0,0,1-3.445,10.981Z" transform="translate(-246.945 -331.221)" fill="#cf264d"/>
    <path id="XMLID_155_" d="M318.383,418.6c.258.28.517.581.754.883a21.781,21.781,0,0,0-3.553,11.8c0,4.263.646,8.246,2.842,11.691h-1.981A19.412,19.412,0,0,1,313,431.992,19.725,19.725,0,0,1,318.383,418.6Z" transform="translate(-245.611 -331.221)" fill="#f4a15d" opacity="0.23"/>
    <path id="XMLID_147_" d="M318.383,418.6a3.746,3.746,0,0,1,.258.3,22.568,22.568,0,0,0-.969,24.071h-1.227A19.412,19.412,0,0,1,313,431.992,19.725,19.725,0,0,1,318.383,418.6Z" transform="translate(-245.611 -331.221)" fill="#f4a15d" opacity="0.32"/>
    <path id="XMLID_144_" d="M342.136,431.971a19.553,19.553,0,0,0-5.383-13.371c-.258.28-.517.581-.754.883a21.464,21.464,0,0,1,.108,23.49h2.584A19.533,19.533,0,0,0,342.136,431.971Z" transform="translate(-263.659 -331.221)" fill="#a5143a" opacity="0.37"/>
    <path id="XMLID_140_" d="M343.941,431.971a19.553,19.553,0,0,0-5.383-13.371,3.746,3.746,0,0,0-.258.3,22.568,22.568,0,0,1,.969,24.071H340.5A19.532,19.532,0,0,0,343.941,431.971Z" transform="translate(-265.463 -331.221)" fill="#a5143a" opacity="0.72"/>
    <path id="XMLID_134_" d="M336.754,418.6c-.258.28-.517.581-.754.883a21.464,21.464,0,0,1,.108,23.49h2.584a19.412,19.412,0,0,0,3.445-10.981A19.725,19.725,0,0,0,336.754,418.6Z" transform="translate(-263.659 -331.221)" fill="#a5143a" opacity="0.37"/>
    <path id="XMLID_130_" d="M338.558,418.6a3.746,3.746,0,0,0-.258.3,22.568,22.568,0,0,1,.969,24.071H340.5a19.412,19.412,0,0,0,3.445-10.981A19.724,19.724,0,0,0,338.558,418.6Z" transform="translate(-265.463 -331.221)" fill="#a5143a" opacity="0.72"/>
    <path id="XMLID_67_" d="M331.984,422.4a21.745,21.745,0,0,0-2.842-3.9,21,21,0,0,0-2.842,3.9Z" transform="translate(-256.047 -331.142)" fill="#601b23"/>
    <path id="XMLID_39_" d="M318.166,442.951a19.27,19.27,0,0,1-3.466-10.981,19.572,19.572,0,0,1,5.34-13.371,19.712,19.712,0,0,1,5.383,13.371,19.361,19.361,0,0,1-3.445,10.981Z" transform="translate(-246.945 -331.221)" fill="none" stroke="#601b23" stroke-linecap="round" stroke-linejoin="round" stroke-miterlimit="10" stroke-width="1"/>
    <line id="XMLID_12_" x2="7.084" transform="translate(69.176 108.888)" fill="none" stroke="#601b23" stroke-linecap="round" stroke-linejoin="round" stroke-miterlimit="10" stroke-width="2"/>
    <path id="XMLID_196_" d="M556.533,402.909l7.019,2.734V392.316L542,375.5v25.213l5.21,2.734A11.234,11.234,0,0,1,556.533,402.909Z" transform="translate(-425.305 -297.401)" fill="#c11a4d"/>
    <path id="XMLID_188_" d="M616.582,456.177l-6.976-2.713a25.057,25.057,0,0,1,.388-5.641,25.934,25.934,0,0,1,2.82-7.923l3.768,2.95v13.328Z" transform="translate(-478.335 -347.935)" fill="#a5143a" opacity="0.72"/>
    <path id="XMLID_181_" d="M562.669,396.04,542,379.935V375.5l21.552,16.794v13.349l-.883-.344Z" transform="translate(-425.305 -297.401)" fill="#f4a15d" opacity="0.23"/>
    <path id="XMLID_175_" d="M550.569,402.306a10.881,10.881,0,0,0-3.359,1.141L542,400.712V375.5l9.086,7.084a54.057,54.057,0,0,1-.517,19.722Z" transform="translate(-425.305 -297.401)" fill="#a5143a" opacity="0.72"/>
    <path id="XMLID_166_" d="M556.533,402.909l7.019,2.734V392.316L542,375.5v25.213l5.21,2.734A11.234,11.234,0,0,1,556.533,402.909Z" transform="translate(-425.305 -297.401)" fill="none" stroke="#601b23" stroke-linecap="round" stroke-linejoin="round" stroke-miterlimit="10" stroke-width="1"/>
    <path id="XMLID_59_" d="M522.9,529.1s2.605.56,6.352,4.306a71.877,71.877,0,0,1,5.06,6.2,1.135,1.135,0,0,0,2.045-.646l.517-22.93a2.266,2.266,0,0,0-.474-1.809l-5.641-7.019Z" transform="translate(-410.318 -400.745)" fill="#cf264d"/>
    <path id="XMLID_48_" d="M562.116,539.41h0a2.543,2.543,0,0,1-2.175-2.476l-.237-21.315a2.266,2.266,0,0,0-.474-1.809L555.7,509.4l.8-2.2,5.641,7.019a2.288,2.288,0,0,1,.474,1.809Z" transform="translate(-436.055 -400.745)" fill="#a5143a" opacity="0.72"/>
    <path id="XMLID_47_" d="M522.9,529.1l7.859-21.9,3.122,3.9a86.355,86.355,0,0,1-7.9,19.571A9.841,9.841,0,0,0,522.9,529.1Z" transform="translate(-410.318 -400.745)" fill="#a5143a" opacity="0.72"/>
    <path id="XMLID_33_" d="M522.9,529.1s2.605.56,6.352,4.306a71.877,71.877,0,0,1,5.06,6.2,1.135,1.135,0,0,0,2.045-.646l.517-22.93a2.266,2.266,0,0,0-.474-1.809l-5.641-7.019Z" transform="translate(-410.318 -400.745)" fill="none" stroke="#601b23" stroke-linecap="round" stroke-linejoin="round" stroke-miterlimit="10" stroke-width="1"/>
    <path id="XMLID_22_" d="M478.645,622.059c.237-2.562-.108-4.974-4.414-11.325a1.985,1.985,0,0,0-3.122,0c-4.306,6.373-4.651,8.785-4.414,11.325a.884.884,0,0,0,.99.56,13.515,13.515,0,0,1,9.969,0A.862.862,0,0,0,478.645,622.059Z" transform="translate(-366.17 -481.391)" fill="#4e8280"/>
    <g id="XMLID_107_" transform="translate(100.469 128.575)" opacity="0.32">
      <g id="XMLID_222_">
        <g id="XMLID_225_">
          <path id="XMLID_226_" d="M468.87,622.028c-.237-2.562.108-4.974,4.414-11.325a1.569,1.569,0,0,1,.474-.452,1.983,1.983,0,0,0-2.648.452c-4.306,6.373-4.651,8.785-4.414,11.325a.884.884,0,0,0,.99.56,8.775,8.775,0,0,1,1.206-.474C468.892,622.092,468.87,622.071,468.87,622.028Z" transform="translate(-466.64 -609.935)" fill="#f4a15d"/>
        </g>
        <g id="XMLID_223_" transform="translate(7.118 11.703)">
          <path id="XMLID_224_" d="M499.7,664.336a11.049,11.049,0,0,1,3.9.9.91.91,0,0,0,.969-.474A14.324,14.324,0,0,0,499.7,664.336Z" transform="translate(-499.7 -664.291)" fill="#f4a15d"/>
        </g>
      </g>
    </g>
    <g id="XMLID_46_" transform="translate(105.499 128.584)">
      <g id="XMLID_168_">
        <g id="XMLID_169_">
          <path id="XMLID_170_" d="M490.194,610.736a1.939,1.939,0,0,0-.194-.215,1.986,1.986,0,0,1,2.928.215c4.306,6.373,4.651,8.785,4.414,11.325a.884.884,0,0,1-.99.56,7.53,7.53,0,0,0-1.744-.6C494.844,619.477,494.478,617.066,490.194,610.736Z" transform="translate(-490 -609.977)" fill="#37605d"/>
        </g>
      </g>
    </g>
    <path id="XMLID_17_" d="M478.645,622.059c.237-2.562-.108-4.974-4.414-11.325a1.985,1.985,0,0,0-3.122,0c-4.306,6.373-4.651,8.785-4.414,11.325a.884.884,0,0,0,.99.56,13.515,13.515,0,0,1,9.969,0A.862.862,0,0,0,478.645,622.059Z" transform="translate(-366.17 -481.391)" fill="none" stroke="#601b23" stroke-linecap="round" stroke-linejoin="round" stroke-miterlimit="10" stroke-width="1"/>
    <path id="XMLID_15_" d="M437.3,367.406c10.141-16.6,13.823-32.9,11.54-46.485A37.363,37.363,0,0,0,432.438,295.3a37.363,37.363,0,0,0-16.406,25.622c-2.282,13.586,1.421,29.885,11.54,46.485Z" transform="translate(-325.949 -234.468)" fill="#cf264d"/>
    <path id="XMLID_20_" d="M423.74,321.237c1.292-10.679,4.651-19.162,9.172-25.514-.151-.108-.323-.215-.474-.323a37.363,37.363,0,0,0-16.406,25.622c-2.282,13.586,1.421,29.885,11.54,46.485h2.045C424,350.906,422.1,334.952,423.74,321.237Z" transform="translate(-325.949 -234.547)" fill="#f4a15d" opacity="0.23"/>
    <path id="XMLID_54_" d="M511.634,321.392A37.24,37.24,0,0,0,495.4,295.9a55.061,55.061,0,0,1,4.974,10.206,58.289,58.289,0,0,1,3.4,18.6c.775,18.495-6.309,38.949-7.794,43.191h4.112C510.235,351.277,513.916,334.978,511.634,321.392Z" transform="translate(-388.738 -234.939)" fill="#a5143a" opacity="0.37"/>
    <path id="XMLID_5_" d="M508.731,320.922A37.363,37.363,0,0,0,492.324,295.3c-.215.129-.409.28-.624.409a36.291,36.291,0,0,1,7.148,7.407c15.847,22.048.646,55.054-1.443,59.425a46.965,46.965,0,0,0-1.572-10.765,48.741,48.741,0,0,0-2.433-6.89l-.969,21.9h2.67c-.065.215-.129.409-.215.624h2.261C507.331,350.806,511.013,334.507,508.731,320.922Z" transform="translate(-385.835 -234.468)" fill="#a5143a" opacity="0.72"/>
    <path id="XMLID_6_" d="M418.823,332.021c.3-3.445,1.421-14.641,8.332-23.835a30.39,30.39,0,0,0,2.605-3.51c-.194-.172-3.983,3.251-6.674,6.89a38.215,38.215,0,0,0-6.954,16.708c-2.282,13.586,1.421,29.885,11.541,46.485h.883a98.329,98.329,0,0,1-5.856-14.469,85.2,85.2,0,0,1-3.165-13.629A60.592,60.592,0,0,1,418.823,332.021Z" transform="translate(-326.028 -241.822)" fill="#f4a15d" opacity="0.32"/>
    <circle id="XMLID_13_" cx="5.856" cy="5.856" r="5.856" transform="translate(101.796 82.922)" fill="#a5143a" stroke="#a5143a" stroke-linecap="round" stroke-linejoin="round" stroke-miterlimit="10" stroke-width="6" opacity="0.72"/>
    <path id="XMLID_11_" d="M437.3,367.406c10.141-16.6,13.823-32.9,11.54-46.485A37.363,37.363,0,0,0,432.438,295.3a37.363,37.363,0,0,0-16.406,25.622c-2.282,13.586,1.421,29.885,11.54,46.485Z" transform="translate(-325.949 -234.468)" fill="none" stroke="#601b23" stroke-linecap="round" stroke-linejoin="round" stroke-miterlimit="10" stroke-width="1"/>
    <circle id="XMLID_25_" cx="5.856" cy="5.856" r="5.856" transform="translate(100.633 82.018)" fill="#abcfd8"/>
    <circle id="XMLID_26_" cx="3.531" cy="3.531" r="3.531" transform="translate(102.162 84.02)" fill="#e2f0f2" opacity="0.93"/>
    <circle id="XMLID_1_" cx="5.856" cy="5.856" r="5.856" transform="translate(100.633 82.018)" fill="none" stroke="#601b23" stroke-linecap="round" stroke-linejoin="round" stroke-miterlimit="10" stroke-width="1"/>
    <path id="XMLID_44_" d="M456.2,302.728a25.359,25.359,0,0,1,16.6.022,37.741,37.741,0,0,0-8.311-7.45A37.592,37.592,0,0,0,456.2,302.728Z" transform="translate(-357.979 -234.468)" fill="#601b23"/>
    <path id="XMLID_23_" d="M456.2,302.728a25.359,25.359,0,0,1,16.6.022,37.741,37.741,0,0,0-8.311-7.45A37.592,37.592,0,0,0,456.2,302.728Z" transform="translate(-357.979 -234.468)" fill="none" stroke="#601b23" stroke-linecap="round" stroke-linejoin="round" stroke-miterlimit="10" stroke-width="1"/>
    <path id="XMLID_18_" d="M486.909,557.374h0c.237,0,.431-.258.452-.6l1.615-26.354c.172-2.713-.689-5.232-1.959-5.835a.232.232,0,0,0-.237,0c-1.27.581-2.132,3.1-1.959,5.835l1.615,26.354C486.478,557.115,486.693,557.374,486.909,557.374Z" transform="translate(-380.419 -414.359)" fill="#bc1d4e"/>
    <path id="XMLID_2_" d="M486.909,557.374h0c.237,0,.431-.258.452-.6l1.615-26.354c.172-2.713-.689-5.232-1.959-5.835a.232.232,0,0,0-.237,0c-1.27.581-2.132,3.1-1.959,5.835l1.615,26.354C486.478,557.115,486.693,557.374,486.909,557.374Z" transform="translate(-380.419 -414.359)" fill="#a5143a" opacity="0.74"/>
    <g id="XMLID_8_" transform="translate(104.4 110.191)" opacity="0.53">
      <g id="XMLID_199_">
        <g id="XMLID_202_" transform="translate(0 0.032)">
          <path id="XMLID_203_" d="M486.879,524.7c-1.27.581-2.132,3.1-1.959,5.835l1.615,26.354a.659.659,0,0,0,.323.581V524.7Z" transform="translate(-484.898 -524.7)" fill="#f4a15d"/>
        </g>
        <g id="XMLID_200_" transform="translate(1.981)">
          <path id="XMLID_201_" d="M494.1,524.582h.237A.232.232,0,0,0,494.1,524.582Z" transform="translate(-494.1 -524.55)" fill="#f4a15d"/>
        </g>
      </g>
    </g>
    <path id="XMLID_27_" d="M486.909,557.374h0c.237,0,.431-.258.452-.6l1.615-26.354c.172-2.713-.689-5.232-1.959-5.835a.232.232,0,0,0-.237,0c-1.27.581-2.132,3.1-1.959,5.835l1.615,26.354C486.478,557.115,486.693,557.374,486.909,557.374Z" transform="translate(-380.419 -414.359)" fill="none" stroke="#601b23" stroke-linecap="round" stroke-linejoin="round" stroke-miterlimit="10" stroke-width="1"/>
    <path id="XMLID_255_" d="M628.766,442.951a19.27,19.27,0,0,1-3.466-10.981,19.572,19.572,0,0,1,5.34-13.371,19.712,19.712,0,0,1,5.383,13.371,19.361,19.361,0,0,1-3.445,10.981Z" transform="translate(-490.67 -331.221)" fill="#cf264d"/>
    <path id="XMLID_249_" d="M628.766,442.951a19.27,19.27,0,0,1-3.466-10.981,19.572,19.572,0,0,1,5.34-13.371,19.712,19.712,0,0,1,5.383,13.371,19.361,19.361,0,0,1-3.445,10.981Z" transform="translate(-490.67 -331.221)" fill="#cf264d"/>
    <path id="XMLID_245_" d="M629.083,418.6c.258.28.517.581.754.883a21.782,21.782,0,0,0-3.553,11.8c0,4.263.646,8.246,2.842,11.691h-1.981a19.295,19.295,0,0,1,1.938-24.373Z" transform="translate(-489.414 -331.221)" fill="#f4a15d" opacity="0.23"/>
    <path id="XMLID_242_" d="M629.083,418.6a3.746,3.746,0,0,1,.258.3,22.568,22.568,0,0,0-.969,24.071h-1.227a19.295,19.295,0,0,1,1.938-24.373Z" transform="translate(-489.414 -331.221)" fill="#f4a15d" opacity="0.32"/>
    <path id="XMLID_239_" d="M652.736,431.971a19.554,19.554,0,0,0-5.383-13.371c-.258.28-.517.581-.754.883a21.464,21.464,0,0,1,.108,23.49h2.584A19.533,19.533,0,0,0,652.736,431.971Z" transform="translate(-507.384 -331.221)" fill="#a5143a" opacity="0.37"/>
    <path id="XMLID_236_" d="M654.541,431.971a19.553,19.553,0,0,0-5.383-13.371,3.746,3.746,0,0,0-.258.3,22.569,22.569,0,0,1,.969,24.071H651.1A19.533,19.533,0,0,0,654.541,431.971Z" transform="translate(-509.189 -331.221)" fill="#a5143a" opacity="0.72"/>
    <path id="XMLID_233_" d="M647.354,418.6c-.258.28-.517.581-.754.883a21.464,21.464,0,0,1,.108,23.49h2.584a19.295,19.295,0,0,0-1.938-24.373Z" transform="translate(-507.384 -331.221)" fill="#a5143a" opacity="0.37"/>
    <path id="XMLID_230_" d="M649.158,418.6a3.746,3.746,0,0,0-.258.3,22.569,22.569,0,0,1,.969,24.071H651.1a19.295,19.295,0,0,0-1.938-24.373Z" transform="translate(-509.189 -331.221)" fill="#a5143a" opacity="0.72"/>
    <path id="XMLID_227_" d="M642.684,422.4a21.743,21.743,0,0,0-2.842-3.9A21,21,0,0,0,637,422.4Z" transform="translate(-499.851 -331.142)" fill="#601b23"/>
    <path id="XMLID_219_" d="M628.766,442.951a19.27,19.27,0,0,1-3.466-10.981,19.572,19.572,0,0,1,5.34-13.371,19.712,19.712,0,0,1,5.383,13.371,19.361,19.361,0,0,1-3.445,10.981Z" transform="translate(-490.67 -331.221)" fill="none" stroke="#601b23" stroke-linecap="round" stroke-linejoin="round" stroke-miterlimit="10" stroke-width="1"/>
    <line id="XMLID_210_" x2="7.084" transform="translate(136.46 108.888)" fill="none" stroke="#601b23" stroke-linecap="round" stroke-linejoin="round" stroke-miterlimit="10" stroke-width="2"/>
    <path id="XMLID_228_" d="M463.8,303.879s1.464-2.3,6.438-6.179a21.649,21.649,0,0,0-2.907,5.232C465.867,303.212,463.8,303.879,463.8,303.879Z" transform="translate(-363.942 -236.351)" fill="#fff" opacity="0.41"/>
  </g>
</svg>
