<svg id="tatami" xmlns="http://www.w3.org/2000/svg" width="32.286" height="32.298" viewBox="0 0 32.286 32.298">
  <g id="Group_344" data-name="Group 344" transform="translate(0 0)">
    <path id="Path_168" data-name="Path 168" d="M31.051,0H1.418A1.328,1.328,0,0,0,.091,1.327V30.971A1.328,1.328,0,0,0,1.418,32.3H31.051a1.328,1.328,0,0,0,1.327-1.327V1.327A1.328,1.328,0,0,0,31.051,0Zm.381,30.971a.381.381,0,0,1-.381.381H1.418a.381.381,0,0,1-.381-.381V1.327A.381.381,0,0,1,1.418.946H31.051a.381.381,0,0,1,.381.381Z" transform="translate(-0.091 0)"/>
    <path id="Path_169" data-name="Path 169" d="M61.84,34.267H34.819a.473.473,0,0,0-.473.473V61.771a.473.473,0,0,0,.473.473H61.84a.473.473,0,0,0,.473-.473V34.74A.473.473,0,0,0,61.84,34.267ZM41.471,61.3H35.292V45.036h6.179Zm19.9-7.125H58.938a.473.473,0,1,0,0,.946h2.428V61.3H45.105V55.119H56.693a.473.473,0,1,0,0-.946H45.064a.906.906,0,0,0-.9.9V61.3H42.416v-16.3a.906.906,0,0,0-.9-.9h-6.22V42.337h4.188a.473.473,0,1,0,0-.946H35.292V35.213H51.553v6.179H41.74a.473.473,0,0,0,0,.946h9.854a.906.906,0,0,0,.9-.9v-6.22h1.743v16.3a.906.906,0,0,0,.9.9h6.22v1.753Zm0-2.7H55.188V35.213h6.179Z" transform="translate(-32.186 -32.106)"/>
    <path id="Path_170" data-name="Path 170" d="M197.559,190.057h-6.521a.906.906,0,0,0-.9.9v6.521a.906.906,0,0,0,.9.9h6.521a.906.906,0,0,0,.9-.9v-6.521A.905.905,0,0,0,197.559,190.057Zm-.041,7.384H191.08V191h6.438v6.438Z" transform="translate(-178.151 -178.073)"/>
  </g>
</svg>
