<svg xmlns="http://www.w3.org/2000/svg" width="43.25" height="55.846" viewBox="0 0 43.25 55.846">
  <g id="house" transform="translate(0 0)">
    <path id="Path_100" data-name="Path 100" d="M41.631,49.125H34.2a.8.8,0,0,1,0-1.6h6.63v-19H11.076v19h9.613a.8.8,0,1,1,0,1.6H10.278a.8.8,0,0,1-.8-.8v-20.6a.8.8,0,0,1,.8-.8H41.631a.8.8,0,0,1,.8.8v20.6A.8.8,0,0,1,41.631,49.125Z" transform="translate(-4.329 -7.041)"/>
    <path id="Path_101" data-name="Path 101" d="M32.673,54.346H30.328a.8.8,0,1,1,0-1.6h2.346a.8.8,0,0,1,0,1.6Z" transform="translate(-8.383 -12.262)"/>
    <path id="Path_102" data-name="Path 102" d="M45.476,23.485H3.821a.8.8,0,0,1-.55-1.375L24.1,2.221a.8.8,0,0,1,1.1,0L46.027,22.11a.8.8,0,0,1-.55,1.375Zm-39.665-1.6H43.486L24.648,3.9Z" transform="translate(-3.024 -2)"/>
    <path id="Path_106" data-name="Path 106" d="M42.694,67.6H6.818a.8.8,0,1,1,0-1.6H42.694a.8.8,0,1,1,0,1.6Z" transform="translate(-3.63 -14.941)"/>
    <path id="Path_107" data-name="Path 107" d="M47.79,69.987a.8.8,0,0,1-.564-1.362L49.851,66l-2.625-2.626a.8.8,0,0,1,1.129-1.124l3.191,3.191a.8.8,0,0,1,0,1.128l-3.191,3.191a.8.8,0,0,1-.565.228Z" transform="translate(-11.914 -14.141)"/>
    <path id="Path_108" data-name="Path 108" d="M10.006,69.978a.8.8,0,0,1-.564-.234L6.251,66.553a.8.8,0,0,1,0-1.128l3.191-3.191a.8.8,0,1,1,1.128,1.128L7.945,65.989l2.625,2.625a.8.8,0,0,1-.564,1.364Z" transform="translate(-3.629 -14.132)"/>
  </g>
</svg>
